<?xml version="1.0" encoding="utf-8" ?>
<svg xmlns="http://www.w3.org/2000/svg" xmlns:xlink="http://www.w3.org/1999/xlink" width="502" height="502">
	<path fill="#EA0D00" d="M3.78423 247.987L15.3701 253.921C16.98 254.743 18.523 255.704 20.1773 256.434L31.6475 261.411C34.3577 262.487 37.1783 263.243 39.8142 264.499C45.258 267.093 50.7511 270.818 55.4809 274.581C61.4139 279.301 66.3585 284.787 71.625 290.179L75.2147 293.579C78.3752 296.845 80.8829 300.91 84.8766 303.231C90.1079 301.31 94.3627 298.891 98.5164 295.122C102.114 291.857 105.215 288.107 108.884 284.905L120.754 274.646C122.304 273.266 123.965 271.95 125.399 270.452C127.259 268.509 128.73 266.213 130.48 264.176C133.324 260.865 136.767 257.795 139.886 254.731C141.378 253.265 142.917 251.329 144.66 250.193C145.985 249.329 147.562 249.181 149.004 248.634L150.254 249.732C150.847 250.317 151.491 251.153 151.352 252.04C151.23 252.818 150.61 253.589 150.158 254.211C148.515 256.47 146.481 258.316 144.672 260.425C143.101 262.258 141.704 264.257 139.99 265.964C138.152 267.794 136.013 269.325 134.219 271.198C130.015 275.588 126.163 280.273 121.709 284.45L101.407 302.398C99.5441 303.975 97.56 305.384 95.5948 306.83C92.6182 309.019 89.6667 311.72 85.7053 311.348C81.9909 311 78.6098 309.072 76.1404 306.319C74.8966 304.932 73.8963 303.335 72.6441 301.937L64.7619 293.724L59.2534 288.375C57.3538 286.673 54.8978 285.262 52.875 283.64C49.3465 280.811 46.0731 278.182 42.1578 275.856C35.7925 272.075 28.6752 269.421 22 266.254C19.0517 264.855 16.2697 263.124 13.3962 261.585C9.49473 259.495 4.20632 256.866 1.48843 253.289C1.07554 252.746 0.718451 251.769 0.853994 251.087C1.14784 249.608 2.59106 248.705 3.78423 247.987Z"/>
	<path fill="#EA0D00" d="M248.506 352.416C249.483 351.585 250.576 350.433 251.961 350.507C252.947 350.559 253.831 351.279 254.582 351.861C256.893 353.656 258.95 355.789 261.15 357.719C262.707 359.084 264.394 360.283 265.875 361.739C267.765 363.597 269.367 365.727 271.267 367.567L283.675 379.258L289.53 385.756C291.059 387.414 292.732 388.977 294.146 390.732L303.46 401.375C305.057 403.289 306.374 405.428 307.803 407.465C309.106 409.322 310.34 410.488 311.019 412.75L311.137 413.13C311.908 415.707 311.012 419.074 309.729 421.376C307.735 424.954 304.353 427.022 301.375 429.662L294.483 436.24L290.438 440.663C289.712 441.439 288.838 442.115 288.17 442.931L284.594 447.669C282.674 450.077 280.654 452.404 278.887 454.929C273.177 463.085 269.749 472.402 265.455 481.308C264.345 483.611 262.864 485.694 261.66 487.943C259.511 491.96 257.384 496.13 254.211 499.478C253.638 500.083 253.008 500.686 252.187 500.921C251.194 501.204 250.475 500.967 249.667 500.397C248.92 499.871 248.406 498.927 247.974 498.136C248.612 497.408 248.69 496.824 249.112 495.995L251.661 491.04L260.369 472.625L263.665 463.838C264.843 461.011 266.393 458.3 268.06 455.736C270.33 452.245 272.641 448.669 275.294 445.455C280.718 438.883 287.061 433.066 293.134 427.114C296.608 423.71 300.45 421.02 303.275 416.988C302.477 415.449 302.002 413.783 301.304 412.2C300.211 409.719 298.429 407.439 296.756 405.318C293.561 401.267 289.482 398.064 286.022 394.243L279.312 386.21L274.909 381.465C273.488 379.845 272.136 378.07 270.588 376.574C268.464 374.52 265.891 372.843 263.63 370.928C260.94 368.649 258.551 365.791 256.071 363.279C254.331 361.518 252.242 359.843 250.713 357.902C249.431 356.274 248.948 354.398 248.506 352.416Z"/>
	<path fill="#EA0D00" d="M253.401 148.935C252.99 149.436 252.577 149.946 252.092 150.376C251.516 150.885 250.703 151.475 249.899 151.382C247.343 151.086 243.958 146.99 242.03 145.268C239.92 143.383 237.588 141.677 235.58 139.688C233.814 137.937 232.337 135.911 230.54 134.183L218.662 122.967C214.105 118.394 209.835 113.352 205.625 108.451C200.835 102.875 196.095 97.4546 191.812 91.4632C190.595 89.7613 190.219 87.0154 190.567 84.9882C191.645 78.7148 195.692 76.2507 200.177 72.3676C201.441 71.2724 202.532 69.9857 203.762 68.8526C205.291 67.4439 206.928 66.1097 208.303 64.5431C213.824 58.2511 219.857 51.9215 224.301 44.7759C229.202 36.8952 232.346 28.3616 236.44 20.1008C237.543 17.8747 238.986 15.8028 240.185 13.625C241.88 10.5486 243.338 7.84378 245.453 4.99875C246.336 3.80995 247.258 2.46056 248.498 1.62223C249.27 1.10087 250.199 0.711262 251.142 0.963995C252.382 1.29635 253.175 2.34687 253.785 3.39652C252.867 5.91935 251.442 8.15522 250.255 10.5473L245.599 19.6346C244.985 20.9467 244.629 22.3495 244.033 23.6604C241.998 28.1309 239.701 32.5392 238.445 37.3229C238.205 38.2359 237.585 39.0849 237.159 39.9265C235.83 42.5536 234.65 44.8012 232.988 47.25C231.471 49.4853 230.059 51.7832 228.424 53.9387C225.208 58.1801 221.405 62.3028 217.628 66.0461L212.536 70.6868C211.121 72.0571 209.917 73.636 208.483 74.9921C205.993 77.3478 203.21 79.4241 200.804 81.8645C200.367 82.307 198.814 84.1591 198.752 84.8011C198.735 84.9813 199.042 85.725 199.111 85.9358C199.689 87.7062 200.379 89.4103 201.283 91.0413C205.015 97.7806 210.878 102.075 215.901 107.684C221.202 113.604 226.01 120.103 231.72 125.659C233.618 127.506 235.922 128.93 237.926 130.662C240.973 133.293 243.67 136.45 246.508 139.312C248.111 140.929 250.482 142.684 251.64 144.598C252.443 145.925 252.749 147.538 253.401 148.935Z"/>
	<path fill="#EA0D00" d="M180.774 178.094L180.814 178.343C180.911 179.539 180.621 180.288 179.875 181.202C176.566 182.718 171.822 182.181 168.25 182.478C166.372 182.634 164.569 183.013 162.67 183.025L154.619 182.752C152.213 182.759 149.806 183.051 147.402 183.152L137.125 183.232C129.832 183.182 122.584 182.52 115.315 181.904L107.625 181.482L98 180.178C95.2153 179.781 92.4742 178.368 90.7864 176.078C89.6784 174.575 88.7626 172.706 88.4008 170.856C87.716 167.355 88.5184 163.318 88.6963 159.781C88.8901 155.926 88.9432 151.981 88.7764 148.125C88.4235 139.965 88.1028 131.468 86.2097 123.482C84.3761 115.746 81.3183 108.642 78.625 101.202C77.7352 98.7442 77.1137 96.2037 76.3785 93.699C75.1392 89.4768 73.9694 85.4424 73.2166 81.0964C72.962 79.6261 72.4815 78.2935 72.7582 76.7933C72.9635 75.6807 73.8236 74.4303 74.8253 73.8781C75.8023 73.3397 76.7738 73.5599 77.7895 73.8235C78.9084 75.7958 79.3011 77.7449 79.9984 79.8729L83.8359 91.625L89.7638 106.328C90.1941 107.331 90.9183 108.156 91.3353 109.175C92.6034 112.275 93.3769 115.681 94.0936 118.941C95.7927 126.669 96.6327 134.354 96.7384 142.257C96.7847 145.717 96.3432 149.138 96.2703 152.582C96.2413 153.951 96.6007 155.256 96.534 156.668C96.3611 160.33 95.421 164.745 96.1523 168.375L96.5375 170.364C98.6903 171.419 100.979 172.739 103.342 173.205C106.733 173.874 110.414 174.418 113.875 174.473C117.227 174.526 120.533 174.219 123.899 174.388L136.125 175.464L142.409 175.622C146.885 175.862 152.066 176.094 156.447 175.074C158.898 174.504 160.908 175.846 163.309 175.101C164.045 174.873 165.014 174.99 165.788 175.005L171.51 175.158C172.866 175.175 174.232 174.931 175.577 175.182C176.993 175.446 178.659 175.977 179.857 176.802C180.301 177.107 180.534 177.629 180.774 178.094Z"/>
	<path fill="#EA0D00" d="M324.332 180.682C322.938 180.897 321.929 180.803 320.625 180.258C320.333 179.88 320.119 179.576 319.994 179.107C319.32 176.58 319.646 173.834 319.481 171.245C319.31 168.579 318.87 165.927 318.795 163.254L318.932 153.375L318.515 142.806C318.454 135.452 318.925 128.226 319.441 120.902C319.874 114.759 320.162 108.86 321.011 102.75C321.376 100.125 321.416 96.644 322.714 94.3483C324.137 91.833 327.075 89.4863 329.896 88.7592L330.245 88.6713C333.297 87.8152 336.348 88.459 339.434 88.6711L345.983 88.8633C353.587 89.1273 361.05 88.7039 368.586 87.7804C371.054 87.4778 373.554 87.345 375.992 86.8436C381.429 85.7257 386.795 83.9118 392 82.0033L403.694 77.6395L411.25 75.5048C413.311 74.9186 415.331 74.1899 417.44 73.7847C420.091 73.2754 424.755 71.914 427.021 73.6508C427.661 74.1409 428.276 75.1861 428.258 76C428.239 76.8398 427.746 77.779 427.429 78.5401C421.706 80.0714 415.782 81.6837 410.263 83.8358L397.905 88.7765C395.619 89.7658 393.393 91.0475 391.055 91.876C385.746 93.7575 380.026 94.8936 374.454 95.6598C368.459 96.4839 362.318 96.8215 356.271 96.6995C353.863 96.6508 351.427 96.2873 349.031 96.3128C348.154 96.3221 347.314 96.5951 346.432 96.581C342.372 96.5163 337.829 95.3754 333.837 96.125L331.388 96.5421C329.611 100.354 328.516 103.56 327.877 107.753C327.01 113.438 327.722 119.165 327.413 124.875C326.993 132.637 325.696 140.413 325.846 148.2C325.934 152.739 327.671 157.187 326.326 161.625C327.258 164.79 326.719 167.62 326.702 170.842C326.694 172.426 326.93 174.174 326.704 175.734C326.55 176.798 326.054 178.184 325.507 179.125C325.174 179.697 324.767 180.188 324.332 180.682Z"/>
	<path fill="#EA0D00" d="M352.046 253.086C351.33 252.139 350.772 251.27 350.263 250.194C351.86 246.695 354.231 244.493 356.783 241.717C358.399 239.959 359.817 238.019 361.493 236.324C363.59 234.202 365.934 232.355 367.989 230.19C371.961 226.003 375.741 221.438 379.915 217.453C381.565 215.878 383.423 214.526 385.125 213.006L389.968 208.407L394.473 204.705L400.286 199.513L407.387 194.125C408.831 193.07 410.401 191.664 412.077 191.044C415.082 189.931 418.694 190.689 421.498 192.065C425.015 193.791 427.003 197.316 429.517 200.125L436.631 207.625C440.131 210.991 443.727 213.969 447.5 216.993C449.795 218.832 451.973 220.774 454.375 222.484C457.678 224.836 461.204 226.839 464.824 228.662L481.502 236.363C484.204 237.693 486.763 239.379 489.416 240.818C492.249 242.356 494.711 243.777 497.288 245.718C498.258 246.449 499.377 247.204 500.065 248.22C500.39 248.698 500.675 249.226 500.859 249.775C501.124 250.563 500.976 251.16 500.562 251.852C499.98 252.822 498.74 253.48 497.705 253.871C489.904 249.303 481.596 245.35 473.318 241.727L463.511 238.002C457.973 235.588 452.814 232.029 447.95 228.473C441.636 223.856 436.262 218.014 430.875 212.397L426.74 208.419C423.434 204.994 421.038 201.168 416.849 198.698C413.647 199.763 410.772 201.062 408 203.013C402.948 206.569 399.321 211.113 394.826 215.246L386.283 222.44L381.354 226.996C379.797 228.371 378.135 229.659 376.685 231.151C374.841 233.048 373.318 235.214 371.688 237.289C369.129 240.543 365.566 243.427 362.611 246.373C360.978 248.002 359.223 250.327 357.336 251.561C355.736 252.606 353.898 252.858 352.046 253.086Z"/>
	<path fill="#EA0D00" d="M177.826 321.043C179.058 321.061 180.094 321.292 181.27 321.61C182.678 324.514 182.354 329.63 182.557 332.849C182.667 334.58 182.986 336.29 183.047 338.027L183.009 350.875L183.194 368.238L181.489 393.375L179.915 404.712C179.617 407.457 177.86 409.565 175.742 411.207C174.461 412.2 172.632 413.107 171.031 413.397C167.529 414.033 163.336 413.305 159.791 413.117L148.612 412.992C139.985 413.295 131.364 413.598 122.908 415.694C115.518 417.524 108.622 420.502 101.481 423.071C98.627 424.098 95.6658 424.86 92.7488 425.678C89.0587 426.713 85.5275 427.747 81.75 428.421C80.2175 428.695 78.6965 429.337 77.1172 429.165C75.8721 429.03 74.6967 428.436 73.9809 427.392C73.3866 426.525 73.4718 425.503 73.6784 424.52L73.8103 423.961C75.7297 422.967 77.6324 422.548 79.6687 421.906L90.4502 418.4L96.4413 415.968C98.4992 415.168 100.601 414.531 102.625 413.634C105.087 412.544 107.52 411.146 110.025 410.201C116.893 407.611 124.67 406.268 131.952 405.561C136.945 405.076 142.187 405.143 147.204 405.23C149.358 405.267 151.634 405.649 153.768 405.42C158.455 404.917 163.333 406.175 168.044 405.686L170.15 405.493C171.983 402.262 173.107 399.325 173.679 395.635C174.067 393.134 174.415 390.441 174.424 387.912L174.26 378.25C174.378 374.218 175.106 370.24 175.452 366.25C175.563 364.976 175.415 363.639 175.463 362.349L175.821 354.5C175.858 350.766 174.933 347.104 174.877 343.428C174.86 342.346 175.623 340.827 175.383 339.922C174.638 337.116 175.131 334.357 175.146 331.5C175.154 330.019 174.979 328.53 175.03 327.052C175.112 324.651 176.067 322.654 177.826 321.043Z"/>
	<path fill="#EA0D00" d="M321.022 323.918C321.036 322.746 321.075 321.985 321.711 320.978C324.486 318.831 330.003 319.623 333.375 319.428C335.081 319.329 336.754 318.915 338.461 318.797C340.697 318.644 343.204 318.839 345.436 319.106L346.19 319.211C347.805 319.429 349.645 319.062 351.264 318.912C353.178 318.735 355.099 318.736 357.02 318.719L370.105 318.801C371.582 318.872 373.022 319.199 374.5 319.251C383.956 319.582 393.153 320.034 402.495 321.619C403.812 321.842 405.096 321.756 406.38 322.217C408.233 322.883 409.712 323.938 410.92 325.51C412.134 327.09 413.051 328.928 413.392 330.904C413.98 334.315 413.347 338.378 413.193 341.842L413.066 353.083C413.243 361.59 413.741 370.291 415.748 378.599C417.687 386.627 420.966 393.999 423.695 401.745C424.614 404.354 425.265 407.112 425.983 409.786C427.006 413.591 427.979 417.035 428.606 420.932C428.807 422.181 429.289 423.467 429.112 424.743C428.95 425.907 428.37 427.021 427.372 427.675C426.371 428.332 425.719 428.268 424.625 427.988C424.397 427.929 423.855 427.693 423.662 427.72C421.676 421.752 420.039 415.462 417.721 409.625L413.533 399C412.467 396.58 411 394.2 410.104 391.719C408.126 386.246 407.029 380.479 406.118 374.743C405.205 368.99 405.004 363.024 405.121 357.205L405.344 351.708C405.408 350.669 405.596 349.529 405.41 348.502C405.07 346.612 405.373 345.071 405.437 343.194C405.571 339.278 405.833 335.562 405.405 331.652C403.685 330.809 402.054 329.779 400.246 329.123C392.902 326.461 384.548 327.882 376.925 327.415L369.228 326.829C367.714 326.662 366.147 326.218 364.623 326.324C361.147 326.568 357.627 325.732 354.152 325.81C350.719 325.888 347.311 326.751 343.898 326.932C342.652 326.998 341.796 326.556 340.625 326.439C339.64 326.341 338.397 326.722 337.36 326.757L331.523 326.738C327.258 326.755 324.337 327.056 321.022 323.918Z"/>
	<path fill="#FFD801" d="M324.332 180.682C324.767 180.188 325.174 179.697 325.507 179.125C326.054 178.184 326.55 176.798 326.704 175.734C326.93 174.174 326.694 172.426 326.702 170.842C326.719 167.62 327.258 164.79 326.326 161.625C327.671 157.187 325.934 152.739 325.846 148.2C325.696 140.413 326.993 132.637 327.413 124.875C327.722 119.165 327.01 113.438 327.877 107.753C328.516 103.56 329.611 100.354 331.388 96.5421L333.837 96.125C337.829 95.3754 342.372 96.5163 346.432 96.581C347.314 96.5951 348.154 96.3221 349.031 96.3128C351.427 96.2873 353.863 96.6508 356.271 96.6995C362.318 96.8215 368.459 96.4839 374.454 95.6598C380.026 94.8936 385.746 93.7575 391.055 91.876C393.393 91.0475 395.619 89.7658 397.905 88.7765L410.263 83.8358C415.782 81.6837 421.706 80.0714 427.429 78.5401C425.82 82.3631 423.351 86.0305 421.463 89.75L415.785 102.221C414.563 105.005 413.026 107.65 411.926 110.487C410.996 112.883 410.39 115.522 409.757 118.013C408.449 123.157 407.438 128.172 407.074 133.483C406.852 136.739 406.841 140.26 407.181 143.498L408.521 152.858C409.126 156.309 410.157 160.434 409.401 163.94C409.214 164.807 408.871 165.282 408.125 165.759L407.892 165.91C406.674 166.669 405.226 167.094 403.905 167.646C401.66 168.584 399.522 169.729 397.23 170.576C395.621 171.17 393.937 171.484 392.307 172.011C387.095 173.697 381.957 175.986 376.625 177.233C373.55 177.952 370.15 177.83 367.01 178.3C361.912 179.062 356.899 180.524 351.75 181.012C348.118 181.357 344.322 181.198 340.667 181.215C335.338 181.24 329.588 181.55 324.332 180.682Z"/>
	<path fill="#FFD801" d="M352.046 253.086C353.898 252.858 355.736 252.606 357.336 251.561C359.223 250.327 360.978 248.002 362.611 246.373C365.566 243.427 369.129 240.543 371.688 237.289C373.318 235.214 374.841 233.048 376.685 231.151C378.135 229.659 379.797 228.371 381.354 226.996L386.283 222.44L394.826 215.246C399.321 211.113 402.948 206.569 408 203.013C410.772 201.062 413.647 199.763 416.849 198.698C421.038 201.168 423.434 204.994 426.74 208.419L430.875 212.397C436.262 218.014 441.636 223.856 447.95 228.473C452.814 232.029 457.973 235.588 463.511 238.002L473.318 241.727C481.596 245.35 489.904 249.303 497.705 253.871C495.812 254.962 493.615 255.301 491.521 255.833L484.54 257.835C481.181 258.901 477.972 260.343 474.686 261.6C471.256 262.911 467.686 263.915 464.322 265.39C462.242 266.302 460.384 267.52 458.441 268.674C456.321 269.934 454.163 271.073 452.12 272.464C448.207 275.128 443.713 278.177 440.482 281.625C436.83 285.522 433.832 289.966 430.723 294.292C429.189 296.426 427.674 298.878 425.748 300.681C424.881 301.492 423.788 301.984 422.73 302.496C421.443 301.955 420.258 301.2 418.968 300.682C416.543 299.708 413.995 299.092 411.625 297.957L404.666 294.289C400.106 292.11 395.597 290.067 391.257 287.446C388.477 285.768 386.159 283.189 383.534 281.255C381.11 279.469 378.335 278.204 375.945 276.383C372.082 273.439 368.712 270.015 365.259 266.625L352.046 253.086Z"/>
	<path fill="#FFD801" d="M253.785 3.39652C254.623 4.98153 254.946 6.6077 255.41 8.3204L257.634 15.8885L262.781 29.7863C263.93 32.8918 264.868 36.1462 266.326 39.125C267.454 41.4306 268.979 43.5604 270.342 45.7319C273.347 50.5189 276.454 55.2154 280.163 59.5028C284.802 64.8666 291.466 68.4699 297.052 72.7707C298.385 73.7966 300 74.7045 300.966 76.125C301.589 77.0424 301.806 78.0902 301.984 79.1664C301.354 81.0941 300.502 82.8878 299.801 84.7842C299.169 86.4913 298.744 88.2408 297.949 89.8873C296.899 92.0634 295.518 94.0517 294.488 96.2373C292.325 100.828 290.504 105.572 287.727 109.862C285.899 112.684 283.43 115.047 281.506 117.802L276.513 125.384C274.584 128.061 272.267 130.614 270.013 133.024L259.446 143.675C257.477 145.493 255.316 147.045 253.401 148.935C252.749 147.538 252.443 145.925 251.64 144.598C250.482 142.684 248.111 140.929 246.508 139.312C243.67 136.45 240.973 133.293 237.926 130.662C235.922 128.93 233.618 127.506 231.72 125.659C226.01 120.103 221.202 113.604 215.901 107.684C210.878 102.075 205.015 97.7806 201.283 91.0413C200.379 89.4103 199.689 87.7062 199.111 85.9358C199.042 85.725 198.735 84.9813 198.752 84.8011C198.814 84.1591 200.367 82.307 200.804 81.8645C203.21 79.4241 205.993 77.3478 208.483 74.9921C209.917 73.636 211.121 72.0571 212.536 70.6868L217.628 66.0461C221.405 62.3028 225.208 58.1801 228.424 53.9387C230.059 51.7832 231.471 49.4853 232.988 47.25C234.65 44.8012 235.83 42.5536 237.159 39.9265C237.585 39.0849 238.205 38.2359 238.445 37.3229C239.701 32.5392 241.998 28.1309 244.033 23.6604C244.629 22.3495 244.985 20.9467 245.599 19.6346L250.255 10.5473C251.442 8.15522 252.867 5.91935 253.785 3.39652Z"/>
	<path fill="#FFD801" d="M77.7895 73.8235C79.58 74.2455 80.9785 75.1257 82.5735 76.0148L89.6028 79.8715L102.717 85.9568C105.782 87.3589 108.834 88.9331 112.023 90.0396C118.653 92.3397 126.207 93.7719 133.163 94.6038C136.953 95.0571 141.043 94.7448 144.825 94.3081L158.495 92.1631C160.473 91.9235 162.464 91.5539 164.44 92.125C165.001 92.2871 165.32 92.5083 165.634 93.0046C166.227 93.9438 166.55 95.0512 167.046 96.0484C168.397 98.7648 169.786 101.613 170.772 104.484L173.019 111.962C174.25 115.565 175.867 119.182 176.752 122.883C177.726 126.955 177.94 131.013 178.585 135.125C179.485 140.866 180.825 146.228 181.035 152.088L181.06 170.471C181.01 172.933 180.601 175.683 180.774 178.094C180.534 177.629 180.301 177.107 179.857 176.802C178.659 175.977 176.993 175.446 175.577 175.182C174.232 174.931 172.866 175.175 171.51 175.158L165.788 175.005C165.014 174.99 164.045 174.873 163.309 175.101C160.908 175.846 158.898 174.504 156.447 175.074C152.066 176.094 146.885 175.862 142.409 175.622L136.125 175.464L123.899 174.388C120.533 174.219 117.227 174.526 113.875 174.473C110.414 174.418 106.733 173.874 103.342 173.205C100.979 172.739 98.6903 171.419 96.5375 170.364L96.1523 168.375C95.421 164.745 96.3611 160.33 96.534 156.668C96.6007 155.256 96.2413 153.951 96.2703 152.582C96.3432 149.138 96.7847 145.717 96.7384 142.257C96.6327 134.354 95.7927 126.669 94.0936 118.941C93.3769 115.681 92.6034 112.275 91.3353 109.175C90.9183 108.156 90.1941 107.331 89.7638 106.328L83.8359 91.625L79.9984 79.8729C79.3011 77.7449 78.9084 75.7958 77.7895 73.8235Z"/>
	<path fill="#FFD801" d="M321.022 323.918C324.337 327.056 327.258 326.755 331.523 326.738L337.36 326.757C338.397 326.722 339.64 326.341 340.625 326.439C341.796 326.556 342.652 326.998 343.898 326.932C347.311 326.751 350.719 325.888 354.152 325.81C357.627 325.732 361.147 326.568 364.623 326.324C366.147 326.218 367.714 326.662 369.228 326.829L376.925 327.415C384.548 327.882 392.902 326.461 400.246 329.123C402.054 329.779 403.685 330.809 405.405 331.652C405.833 335.562 405.571 339.278 405.437 343.194C405.373 345.071 405.07 346.612 405.41 348.502C405.596 349.529 405.408 350.669 405.344 351.708L405.121 357.205C405.004 363.024 405.205 368.99 406.118 374.743C407.029 380.479 408.126 386.246 410.104 391.719C411 394.2 412.467 396.58 413.533 399L417.721 409.625C420.039 415.462 421.676 421.752 423.662 427.72C421.552 427.187 419.321 425.791 417.461 424.682L411.462 421.347C407.705 419.386 403.636 417.714 399.75 416.007C396.799 414.711 393.91 413.194 390.908 412.025C388.596 411.124 386.176 410.594 383.784 409.946C381.069 409.209 378.206 408.318 375.422 407.917C368.899 406.977 362.357 406.642 355.798 407.428C350.789 408.028 345.567 409.471 340.554 409.672C338.988 409.735 337.358 409.545 335.797 409.416C335.21 407.801 334.827 406.03 334.15 404.468C333.152 402.165 331.887 399.974 330.967 397.63C330.03 395.241 329.537 392.594 328.715 390.143C327.193 385.601 325.3 381.133 324.18 376.466C323.261 372.641 323.386 368.526 322.659 364.622L320.592 352.309C320.42 350.967 320.072 349.663 320.013 348.303C319.793 343.254 319.636 337.706 320.072 332.688C320.328 329.745 320.933 326.896 321.022 323.918Z"/>
	<path fill="#FFD801" d="M73.8103 423.961C74.0903 422.549 74.8883 421.157 75.5276 419.875L80.148 411.296L85.6435 399.253L89.2594 391.496C91.2225 386.682 92.534 380.778 93.4502 375.658C93.7685 373.879 93.7962 372.044 94.0153 370.25C94.3073 367.859 94.8362 365.562 94.7331 363.125C94.6523 361.214 94.2609 359.384 94.0305 357.5L93.3605 351.206C92.7918 347.383 91.7867 343.541 91.8193 339.655C91.8269 338.747 91.8135 337.465 92.1822 336.621C92.7792 335.254 95.482 334.808 96.7491 334.28L103.683 331.167C106.01 330.197 108.494 329.799 110.875 329.007C115.768 327.38 120.554 325.338 125.567 324.072C128.443 323.346 131.563 323.631 134.5 323.207C138.389 322.646 142.207 321.453 146.115 321.011C156.501 319.837 167.4 320.467 177.826 321.043C176.067 322.654 175.112 324.651 175.03 327.052C174.979 328.53 175.154 330.019 175.146 331.5C175.131 334.357 174.638 337.116 175.383 339.922C175.623 340.827 174.86 342.346 174.877 343.428C174.933 347.104 175.858 350.766 175.821 354.5L175.463 362.349C175.415 363.639 175.563 364.976 175.452 366.25C175.106 370.24 174.378 374.218 174.26 378.25L174.424 387.912C174.415 390.441 174.067 393.134 173.679 395.635C173.107 399.325 171.983 402.262 170.15 405.493L168.044 405.686C163.333 406.175 158.455 404.917 153.768 405.42C151.634 405.649 149.358 405.267 147.204 405.23C142.187 405.143 136.945 405.076 131.952 405.561C124.67 406.268 116.893 407.611 110.025 410.201C107.52 411.146 105.087 412.544 102.625 413.634C100.601 414.531 98.4992 415.168 96.4413 415.968L90.4502 418.4L79.6687 421.906C77.6324 422.548 75.7297 422.967 73.8103 423.961Z"/>
	<path fill="#FFD801" d="M248.506 352.416C248.948 354.398 249.431 356.274 250.713 357.902C252.242 359.843 254.331 361.518 256.071 363.279C258.551 365.791 260.94 368.649 263.63 370.928C265.891 372.843 268.464 374.52 270.588 376.574C272.136 378.07 273.488 379.845 274.909 381.465L279.312 386.21L286.022 394.243C289.482 398.064 293.561 401.267 296.756 405.318C298.429 407.439 300.211 409.719 301.304 412.2C302.002 413.783 302.477 415.449 303.275 416.988C300.45 421.02 296.608 423.71 293.134 427.114C287.061 433.066 280.718 438.883 275.294 445.455C272.641 448.669 270.33 452.245 268.06 455.736C266.393 458.3 264.843 461.011 263.665 463.838L260.369 472.625L251.661 491.04L249.112 495.995C248.69 496.824 248.612 497.408 247.974 498.136C245.792 494.043 245.001 488.847 243.521 484.418L239.256 473.012C238.082 469.798 237.096 466.391 235.643 463.298C234.831 461.568 233.741 459.999 232.78 458.353C229.551 452.817 226.039 447.404 221.828 442.555C219.769 440.184 216.984 437.853 214.491 435.934C211.362 433.524 199.939 426.79 199.273 423.394C199.001 422.004 200.021 420.496 200.519 419.25L203.581 411.642L207.043 405C209.304 400.344 211.378 395.382 214.078 390.966C215.642 388.408 218.111 386.32 219.918 383.921C222.392 380.637 224.375 376.973 226.875 373.661C229.023 370.815 231.81 368.314 234.331 365.794C238.969 361.16 243.476 356.638 248.506 352.416Z"/>
	<path fill="#FFD801" d="M3.78423 247.987C7.65933 246.124 11.7241 245.495 15.7169 244.089L29.6102 238.859C32.5349 237.747 35.5501 236.87 38.3887 235.526C42.3899 233.63 46.3423 231.02 50 228.536C52.5223 226.823 55.2556 225.048 57.5488 223.057C60.3797 220.599 63.3248 217.486 65.6346 214.55C67.7161 211.905 69.6557 208.905 71.5874 206.128C73.1739 203.848 75.2659 200.522 78 199.517C78.8997 199.186 79.5477 199.248 80.4561 199.563C81.4149 199.897 82.2544 200.6 83.2041 200.995C84.6614 201.6 86.2121 201.91 87.6639 202.526C90.6289 203.785 93.3059 205.4 96.1646 206.852C100.711 209.159 105.459 211.041 109.842 213.677C112.798 215.455 115.065 218.006 117.819 220.039C120.849 222.277 124.205 224.039 127.196 226.353C130.366 228.806 132.958 231.586 135.807 234.369C138.86 237.35 142.062 240.225 144.875 243.441L149.004 248.634C147.562 249.181 145.985 249.329 144.66 250.193C142.917 251.329 141.378 253.265 139.886 254.731C136.767 257.795 133.324 260.865 130.48 264.176C128.73 266.213 127.259 268.509 125.399 270.452C123.965 271.95 122.304 273.266 120.754 274.646L108.884 284.905C105.215 288.107 102.114 291.857 98.5164 295.122C94.3627 298.891 90.1079 301.31 84.8766 303.231C80.8829 300.91 78.3752 296.845 75.2147 293.579L71.625 290.179C66.3585 284.787 61.4139 279.301 55.4809 274.581C50.7511 270.818 45.258 267.093 39.8142 264.499C37.1783 263.243 34.3577 262.487 31.6475 261.411L20.1773 256.434C18.523 255.704 16.98 254.743 15.3701 253.921L3.78423 247.987Z"/>
</svg>
