<?xml version="1.0" encoding="utf-8" ?>
<svg xmlns="http://www.w3.org/2000/svg" xmlns:xlink="http://www.w3.org/1999/xlink" width="457" height="457" >
	<path transform="translate(-0.5 0)" d="M181.92 0L458 0L458 457L-0 457L0 -0L162.328 0L181.92 0ZM181.92 0C182.135 0.741157 182.154 0.725637 182.796 1.16426C185.823 1.80432 188.856 2.43779 191.727 3.625C201.102 7.50224 208.15 14.3752 214.348 22.189C216.397 24.7717 218.416 27.2636 220.23 30.0333C223.28 34.6913 227.049 40.5916 232.222 43.1127L243.311 39.4328C248.165 38.228 253.141 34.7346 257.558 32.3452L269.237 26.1868C275.954 22.4708 282.565 18.3999 289.841 15.8443C292.995 14.7364 296.255 14.2118 299.521 13.5734C301.82 13.124 304.198 12.4949 306.551 12.4545C310.576 12.3856 315.109 13.4498 319.125 14.0137C322.667 14.5112 326.203 14.769 329.714 15.5286C334.241 16.5081 338.521 18.2969 342.48 20.674C352.214 26.5195 360.997 38.2157 363.559 49.3106L363.664 49.8418C363.873 50.8206 364.249 51.9641 364.182 52.9621C364.847 55.1657 364.708 57.92 364.713 60.2064C364.722 63.7089 364.761 67.2626 364.468 70.7538C364.017 76.1339 362.966 81.5383 362.073 86.8639C361.693 89.128 360.4 93.1413 360.875 95.3468L360.941 95.625L361.003 95.9685C361.358 97.8461 362.805 99.3509 364.351 100.397C368.107 102.936 372.142 105.339 376.444 106.838C379.733 107.985 383.182 108.672 386.495 109.726L411.148 117.179C415.55 118.533 420.172 119.571 424.198 121.877C427.889 123.991 431.984 126.482 435.152 129.33C437.786 131.698 439.806 134.625 441.971 137.404C446.317 142.984 450.651 148.214 453.434 154.801C453.984 156.102 454.67 157.445 455.024 158.812C455.103 159.117 455.17 159.414 455.283 159.709C456.819 163.692 456.36 168.364 456.017 172.523C455.128 173.265 454.676 173.659 454.575 174.837C454.457 176.209 454.385 178.555 455.275 179.625L455.592 179.625C455.789 180.596 455.619 181.55 455.5 182.524C453.701 197.28 443.892 206.996 432.462 215.399L420.63 223.897C418.541 225.546 416.778 227.367 415.272 229.571C415.014 229.948 414.384 230.75 414.278 231.179C414.178 231.59 415.121 233.756 415.284 234.358C416.338 238.261 417.29 242.162 418.912 245.883C420.17 248.769 421.856 251.435 423.375 254.185L429.021 264.75L437.539 280.599C439.072 283.732 440.641 286.774 441.67 290.125C443.793 297.034 444.791 303.807 444.045 311.006C443.886 312.533 443.452 313.995 443.271 315.513L442.532 323.235C440.994 335.636 435.118 346.027 425.287 353.692C420.178 357.676 412.933 361.722 406.555 363.127C403.651 363.766 400.38 363.758 397.419 363.78C391.886 363.822 386.079 363.626 380.589 362.873L363 359.92L362.296 359.824C361.331 359.721 359.951 359.819 359.189 360.472L358.953 360.686C356.237 363.091 354.778 366.086 353.093 369.233C352.125 371.04 350.975 372.972 350.225 374.875C348.37 379.586 347.387 384.755 345.989 389.625L339.516 410.93C338.508 414.23 337.629 417.786 336.154 420.909C334.101 425.257 331.007 430.22 327.777 433.803C325.54 436.283 322.547 438.33 319.93 440.399C314.157 444.965 307.942 450.746 300.866 453.208C298.501 454.031 296.058 454.885 293.588 455.322C290.625 455.846 287.618 455.87 284.625 456.078C283.59 456.15 282.275 456.526 281.273 456.327L281.001 456.249C276.21 455.052 271.255 454.339 266.558 452.734C255.077 448.812 246.604 438.582 239.755 429.045C236.83 424.972 234.027 420.177 230.49 416.639C229.394 415.543 228.136 414.592 226.91 413.646C226.786 413.551 226.169 413.027 226.075 413.007C225.65 412.918 222.864 414.001 222.26 414.156C218.916 415.016 215.632 415.8 212.433 417.133C208.516 418.764 204.795 421.136 201.089 423.201L189.778 429.321C185.251 431.909 180.874 434.655 176.178 436.95C168.283 440.809 159.517 443.403 150.666 443.349C147.946 443.333 145.464 442.809 142.791 442.575C130.147 441.469 117.709 439.465 108.432 429.955C101.306 422.65 94.8995 413.356 93.5051 403.02C93.1102 400.093 93.2509 396.978 93.2632 394.024C93.2868 388.34 93.7359 382.987 94.6141 377.375C95.409 372.295 96.9724 366.757 96.9969 361.636C97.0025 360.447 96.9909 359.189 96.2821 358.173C94.9277 356.231 92.3099 354.848 90.2895 353.73C88.0912 352.514 85.86 351.181 83.5479 350.191C79.3764 348.405 74.7879 347.195 70.423 345.96L63.625 343.788L54.3962 341.394C48.4946 339.721 42.2617 337.817 36.625 335.397C31.1834 333.06 25.4955 329.269 21.3532 325.023C19.3956 323.016 17.8284 320.582 16.0301 318.43C10.5422 311.862 4.96106 304.95 2.56448 296.559C1.54298 292.982 1.25897 289.499 1.31979 285.799C1.47047 276.632 2.63172 266.572 7.53412 258.625C12.668 250.302 20.9717 244.142 28.6973 238.384L35.4322 233.443C36.7593 232.495 38.2929 231.678 39.4482 230.52L41.6198 228.184C42.3326 227.305 43.4458 225.957 43.799 224.88C43.9948 224.284 42.8845 221.568 42.6566 220.858C41.4972 217.246 40.6116 213.631 39.0737 210.139C37.3278 206.175 34.9385 202.368 32.8251 198.578L28.7594 190.725C24.5852 183.262 20.2117 176.092 16.9731 168.131C15.1029 163.534 13.9532 157.753 13.5406 152.815C13.1994 148.731 13.9791 144.896 14.4949 140.875C15.8372 130.411 17.0935 118.945 24.2434 110.577C27.5048 106.761 31.5521 103.208 35.6903 100.393C37.8524 98.9221 40.1657 97.3307 42.5419 96.231C55.2119 90.3676 69.6829 92.0955 82.9995 94.1938L92.2827 95.871C93.4979 96.0604 94.8983 96.4634 96.125 96.3066C97.0226 96.1918 98.4137 95.7903 99.125 95.2282C102.499 92.5616 106.743 83.9002 108.167 79.7037C109.23 76.5707 109.878 73.3299 110.815 70.1671L115.081 55.4599L118.686 44.125C119.57 41.4021 120.305 38.5624 121.398 35.9161C123.418 31.0231 126.927 26.2043 130.309 22.1544L130.545 21.875C132.804 19.1613 136.096 17.1322 138.875 14.9581L145.192 9.67458C147.454 7.90917 150.085 6.27626 152.555 4.80506C155.311 3.16409 158.536 1.96703 161.653 1.22446C162.102 0.810945 162.198 0.594596 162.328 0L-0 -0L0 457L458 457L458 0L181.92 0ZM162.328 0C162.198 0.594596 162.102 0.810945 161.653 1.22446L163.202 1.00322C165.563 0.654824 168.018 0.773514 170.4 0.76865L182.796 1.16426C182.154 0.725637 182.135 0.741157 181.92 0L162.328 0ZM363.664 49.8418C363.445 50.3471 363.243 50.8034 362.912 51.25L363.313 55.4372C363.523 56.7656 363.488 58.2114 363.541 59.5582C364.754 57.6912 363.406 54.8903 364.182 52.9621C364.249 51.9641 363.873 50.8206 363.664 49.8418Z"/>
	<path transform="translate(-0.5 0)" d="M363.664 49.8418C363.873 50.8206 364.249 51.9641 364.182 52.9621C363.406 54.8903 364.754 57.6912 363.541 59.5582C363.488 58.2114 363.523 56.7656 363.313 55.4372L362.912 51.25C363.243 50.8034 363.445 50.3471 363.664 49.8418Z"/>
	<path fill="#EEEAED" fill-opacity="0.81960785" transform="translate(-0.5 0)" d="M162.328 0L181.92 0C182.135 0.741157 182.154 0.725637 182.796 1.16426L170.4 0.76865C168.018 0.773514 165.563 0.654824 163.202 1.00322L161.653 1.22446C162.102 0.810945 162.198 0.594596 162.328 0Z"/>
	<path fill="#AA4BFD" transform="translate(-0.5 0)" d="M167.672 3.35076C170.807 3.03423 174.044 3.23256 177.183 3.42295C180.138 3.60216 183.26 3.77444 186.125 4.54913C195.081 6.97088 201.927 13.5097 207.786 20.375C210.771 23.8728 213.684 27.4498 216.238 31.28C219.337 35.927 221.877 41.4839 226.624 44.7397C229.096 46.4359 231.965 47.1811 234.937 46.5977L235.25 46.5316C241.214 45.3138 246.128 42.3418 251.467 39.627L266.589 32.0793L273.21 28.2975L286.518 21.7075C291.639 19.3293 296.59 17.2733 302.236 16.4856C310.705 15.3038 318.95 17.1622 327.137 19.0954C332.838 20.4419 338.146 21.2693 342.941 24.9403C350.608 30.8098 357.446 38.9125 359.937 48.375C360.708 51.3056 360.773 54.4062 360.853 57.4161C361.058 65.2054 360.279 72.4949 358.846 80.129C357.864 85.3609 356.032 91.729 356.832 97.0444C357.37 100.613 360.862 103.878 363.822 105.599C368.667 108.416 373.682 109.318 378.915 110.978L393.494 115.944L401.993 118.168L413.579 121.979C419.327 123.918 425.212 126.272 430.038 130.026C434.796 133.725 438.364 138.564 441.891 143.381C446.839 150.14 452.244 157.303 453.269 165.868L453.313 166.25C453.784 170.081 453.562 174.204 453.095 178.026C452.67 181.508 452.207 184.958 450.947 188.253C449.142 192.973 446.275 196.741 442.919 200.461C437.898 206.027 432.256 210.64 426.007 214.781C421.667 217.657 415.698 220.481 412.646 224.749C411.215 226.749 409.746 229.348 409.767 231.875C409.781 233.64 410.406 235.845 410.953 237.516C412.671 242.757 415.651 247.597 418.2 252.468L425.975 267.956C431.502 278.479 438.414 288.909 440.298 300.823C441.231 306.72 440.147 312.401 439.262 318.227C438.113 325.78 436.995 335.14 432.34 341.449C427.1 348.553 418.11 356.414 409.462 358.668C404.673 359.916 399.124 359.945 394.205 359.848C389.34 359.753 384.372 359.457 379.595 358.49C375.517 357.664 371.501 356.726 367.375 356.15C365.023 355.821 362.189 355.444 359.826 355.84C355.416 356.579 352.731 360.079 350.694 363.749C347.712 369.12 346.766 374.702 345.002 380.5L340.671 393.227L335.054 411.5C332.848 418.042 330.679 423.796 326.466 429.375C323.029 433.927 318.514 437.079 313.983 440.432C309.121 444.031 304.264 447.661 298.69 450.103C295.92 451.317 293.105 452.017 290.116 452.416C288.533 452.691 286.532 452.582 284.915 452.567C279.67 452.519 274.544 452.005 269.5 450.527C267.117 449.829 264.789 448.489 262.701 447.16C254.518 441.952 247.473 433.257 242.125 425.28C238.931 420.515 236.197 415.247 231.758 411.484C229.952 409.954 227.167 408.627 224.75 408.751C223.678 408.806 222.436 409.27 221.395 409.557C216.383 410.942 211.778 413.315 207.173 415.687L182.109 428.61C176.729 431.403 171.366 434.55 165.705 436.735C162.039 438.15 157.619 439.356 153.699 439.647C147.095 440.139 141.076 438.889 134.658 437.638C127.298 436.204 119.631 435.223 113.727 430.128C106.498 423.891 99.5459 415.948 97.6303 406.348C96.7914 402.145 96.804 397.753 96.9405 393.487C97.105 388.345 97.492 383.105 98.4549 378.046C99.58 372.136 101.532 365.811 101.031 359.749C100.667 355.334 97.5221 352.334 93.9092 350.16C88.6139 346.974 83.2507 346.1 77.4552 344.376L65.0963 340.218L55.5 337.509L43.9111 333.558C37.4254 331.266 31.7241 329.152 26.375 324.63C21.9289 320.872 18.794 316.27 15.4416 311.58C12.2721 307.147 8.89602 302.505 6.68768 297.507C5.41726 294.631 4.5276 291.538 4.28067 288.396C4.03417 285.258 4.27061 282.044 4.55568 278.92C4.86027 275.582 5.25683 272.215 6.246 269C8.4825 261.732 13.243 256.391 18.7039 251.338C22.9503 247.409 27.33 243.913 32.1102 240.643C36.4757 237.656 41.8799 234.906 45.2687 230.81C47.292 228.364 48.0636 225.647 47.67 222.508C46.866 216.095 43.2424 210.235 40.3158 204.599L27.7637 180.167C25.2782 175.393 22.3258 170.657 20.3574 165.647C18.7945 161.669 17.6704 157.536 17.3118 153.269C16.8757 148.078 17.7121 143.034 18.4734 137.921C19.6933 129.728 20.9154 119.524 26.4533 112.995C32.4187 105.962 40.5698 98.4582 49.8996 96.6352C53.339 95.9632 57.0105 96.019 60.505 96.0119C67.1643 95.9982 73.4399 96.6163 80 97.7399C85.4948 98.681 91.6482 100.527 97.25 99.9591C100.792 99.6001 104.116 96.6837 105.969 93.7987C109.441 88.3902 110.592 82.5246 112.427 76.4933L116.714 63.68L122.833 43.7743C125.007 37.3769 127.591 30.802 131.958 25.5495C135.897 20.8135 140.969 17.3134 145.994 13.84C152.423 9.39588 159.675 4.04159 167.672 3.35076Z"/>
	<path transform="translate(-0.5 0)" d="M218.336 313.125L218.733 313.076L219.09 313.375C219.536 314.829 219.651 316.348 219.704 317.861L219.758 333.913L219.756 363.849L219.788 380.713C219.794 384.443 220.066 388.387 219.403 392.068C219.022 394.188 218.048 395.496 216.274 396.714C213.884 398.355 210.731 399.207 208.066 400.319L197.75 405.015L181.776 412.875L171.135 417.59C165.267 420.22 159.034 423.436 152.625 424.417C149.521 424.892 146.283 424.762 143.151 424.767C140.36 424.771 137.414 424.916 134.659 424.426C133.06 424.142 131.573 423.394 129.991 423.069C128.746 422.814 128.231 424.073 127.27 423.795C126.637 423.612 125.951 423.044 125.412 422.672C121.66 420.076 119.189 416.369 116.783 412.566C112.216 405.777 111.662 398.176 111.698 390.278C111.716 386.244 111.846 382.368 112.499 378.375C113.002 375.302 114.172 372.323 114.549 369.237L114.591 368.875C114.766 367.462 114.55 366.984 114.275 365.684C114.056 364.646 114.939 363.067 115.483 362.249C117.617 360.99 120.624 363.571 122.573 364.581C125.598 366.149 128.933 367.165 132.201 368.093C137.633 369.636 143.613 370.731 149.289 370.66C156.716 370.567 164.512 369.028 171.018 365.339C174.917 363.128 178.292 360.299 181.724 357.451C185.254 354.522 188.76 351.602 191.899 348.246C197.277 342.497 201.665 336.007 206.223 329.617C210.162 324.095 213.589 317.995 218.336 313.125Z"/>
	<path fill="#FFD901" transform="translate(-0.5 0)" d="M216.731 320.385C217.018 323.351 216.897 326.391 216.86 329.369L216.504 344.258C216.343 347.491 215.938 350.731 215.911 353.967C215.88 357.771 216.405 361.576 216.637 365.369C217.192 374.431 217.277 384.07 215.679 393.021C213.51 394.415 211.038 395.395 208.676 396.412L198.89 400.71L182.754 408.564L166.341 415.341C161.768 417.156 156.916 419.148 152.101 420.227C148.034 421.137 144.121 421.096 140 420.456C137.786 420.113 135.546 419.422 133.414 418.759C128.334 417.18 124.073 415.299 120.861 410.889C116.503 403.883 115.853 396.325 115.78 388.244C115.719 381.456 116.235 374.68 117.068 367.943L117.995 368.458C128.884 374.346 142.066 376.008 154.252 374.7C157.944 374.304 161.767 373.731 165.328 372.652C175.329 369.62 182.532 362.732 189.831 355.638C192.713 352.838 195.721 350.083 198.23 346.932C201.27 343.114 203.673 338.852 206.525 334.907L212.277 327.73C213.967 325.449 215.398 322.887 216.731 320.385Z"/>
	<path transform="translate(-0.5 0)" d="M59.3964 110.59C61.8334 110.477 64.2168 110.653 66.6499 110.681C70.2674 110.722 73.8612 110.664 77.4478 111.224L90.25 113.884C90.7908 113.469 91.0499 113.26 91.75 113.175C92.6774 113.426 93.5734 113.789 94.2907 114.45C95.6938 115.745 94.6661 117.06 93.9454 118.427C92.1528 121.826 90.444 125.199 89.1971 128.847C86.8412 135.739 86.0074 143.247 86.2635 150.5C86.4913 156.953 88.2991 163.693 91.2299 169.425C93.3973 173.664 96.4089 177.352 99.444 180.986C104.31 186.814 109.578 192.592 115.701 197.122L132.569 208.889C136.678 211.711 140.706 214.35 144.341 217.786C141.055 218.806 138.207 218.744 134.799 218.75L125.375 218.755L85.0207 218.747L73.2131 218.757C70.9051 218.758 68.4749 218.907 66.1864 218.579L65.75 218.513C64.7859 218.376 63.8314 218.236 62.92 217.875C61.5009 217.313 60.6357 216.237 59.8953 214.955C58.8703 213.18 58.1651 211.176 57.3828 209.285L53.1681 199.602L43.5576 180.038L39.0252 169.681C37.4276 166.037 35.7309 162.41 34.3805 158.665C32.9952 154.824 32.0187 150.717 31.7289 146.636C31.4312 142.444 31.587 138.463 32.4178 134.336C32.7751 132.562 33.5423 130.592 33.643 128.805C33.6803 128.143 33.3865 127.461 33.1231 126.864L32.9684 126.523C33.332 125.695 33.7171 124.926 34.2634 124.203C40.2644 116.263 49.7426 111.913 59.3964 110.59Z"/>
	<path fill="#FFD901" transform="translate(-0.5 0)" d="M60.6402 114.852C63.2768 114.605 66.0115 114.742 68.6647 114.741C75.5174 114.74 82.1318 115.018 88.8995 116.239C86.6575 119.811 85.3175 123.834 84.2365 127.888C81.4586 138.306 80.8725 149.236 83.1701 159.813C85.6819 171.375 92.3762 179.59 100.358 187.92C103.713 191.421 107.168 194.918 110.987 197.922C114.525 200.705 118.372 202.932 122.025 205.532L130.824 212.329C132.7 213.673 134.787 214.715 136.729 215.965L117.567 215.671C112.295 215.426 106.912 214.649 101.645 214.774C97.573 214.87 93.5557 215.511 89.5008 215.793C84.6541 216.131 79.8937 215.957 75.0544 215.669C71.1822 215.439 67.7022 215.305 63.8778 214.479L54.0542 193.42L48.228 181.227L43.089 168.858C40.2465 162.037 37.0836 154.739 36.2166 147.36C35.9651 145.218 35.779 143.07 36.0368 140.918C36.4682 137.317 37.709 133.847 38.9435 130.455C39.8285 128.023 40.6834 125.412 42.333 123.375C46.6868 117.999 53.9706 115.532 60.6402 114.852Z"/>
	<path transform="translate(-0.5 0)" d="M355.015 116.875C355.34 116.785 355.372 116.757 355.752 116.753C357.153 116.74 359.83 118.33 361.176 118.915L368.236 121.661L396.463 132.026L413.233 138.25C416.426 139.583 419.642 141.233 422.46 143.248C425.929 145.729 429.548 149.212 432.131 152.602C433.611 154.545 434.82 156.684 436.33 158.603C437.336 159.882 438.576 161.018 439.747 162.146C439.972 166.053 440.034 170.128 439.321 173.989C437.024 186.442 427.76 196.704 417.598 203.716C413.499 206.545 408.768 208.499 405.633 212.537L405.377 212.875C404.327 213.168 403.218 213.056 402.137 213.027C401.646 211.232 401.475 209.384 400.989 207.589C399.644 202.614 397.333 198.239 394.638 193.887C390.71 187.301 384.516 181.215 378.206 176.911C371.96 172.651 365.105 171.133 357.753 170.122C351.46 169.257 344.853 168.549 338.501 168.786C332.571 169.007 326.707 170.189 320.891 171.256L309.754 173.149C306.151 173.841 302.49 174.923 298.875 175.436C298.141 175.54 297.667 175.629 297.097 175.161C296.938 174.333 296.709 173.452 297.079 172.651C298.187 170.252 301.186 167.982 303.057 166.107L316.364 152.858C320.115 149.383 324.111 146.215 327.722 142.577C330.516 139.762 332.937 136.616 335.596 133.68C337.231 131.875 339.055 130.257 340.78 128.541C343.215 126.119 345.518 123.596 348.085 121.306C350.197 119.423 352.376 117.913 355.015 116.875Z"/>
	<path fill="#FFD901" transform="translate(-0.5 0)" d="M355.064 121.125L355.326 121.06C356.682 120.902 388.474 132.666 392.189 134.154C400.018 137.289 407.876 140.46 415.413 144.257C418.867 145.998 422.202 148.126 425.056 150.753C427.759 153.24 429.176 156.484 430.835 159.678C432.594 163.067 434.809 166.434 434.904 170.375C435.152 180.623 428.022 190.416 420.599 196.85C416.214 200.651 411.287 203.814 407.33 208.098C404.59 200.847 401.498 194.378 396.58 188.298C390.96 181.68 383.958 175.013 376.361 170.745C369.884 167.105 363.51 166.295 356.247 165.721C352.816 165.45 349.437 164.843 345.984 164.778C337.007 164.609 328.43 166.747 319.647 168.214L311.564 169.155C308.484 169.607 305.463 170.463 302.467 171.297C307.947 166.579 312.876 161.584 317.979 156.475L334.556 139.915C337.644 136.825 340.251 133.375 343.268 130.249C344.917 128.539 346.793 127.005 348.613 125.481C350.631 123.792 352.617 122.153 355.064 121.125Z"/>
	<path transform="translate(-0.5 0)" d="M164.261 16.7435C170.923 16.6254 177.966 17.5038 184.061 20.3178C187.806 22.0469 191.148 24.5564 194.248 27.2551C198.507 30.9624 202.309 35.4884 205.519 40.1259L210.288 47.4669C211.254 48.8201 212.973 50.1691 213.664 51.638C214.016 52.3859 213.995 53.5515 214.051 54.375C213.174 55.3012 209.746 55.4932 208.366 55.8126C207.058 56.1152 205.755 56.545 204.5 57.0173C197.55 59.6319 191.706 64.0644 186.327 69.0744C182.096 73.015 178.037 77.5591 175.408 82.743C172.432 88.6091 171.338 95.2744 170.673 101.75C170.151 106.831 169.623 111.851 169.767 116.969C169.932 122.835 171.022 128.945 172.025 134.717L175.005 151.345C175.359 153.127 176.991 157.939 176.288 159.518C175.675 160.014 175.124 159.977 174.375 160.008C171.525 159.159 168.11 154.69 165.987 152.539L154.393 140.873C151.65 137.931 149.199 134.794 146.356 131.936L136.006 122.402L127.515 113.931C124.314 110.707 121.079 107.754 118.823 103.755C118.35 102.918 117.517 101.932 117.802 100.996C118.63 98.2812 119.861 95.6002 120.876 92.9436L127.001 76.75L134.881 55.0903C137.091 49.0177 139.083 42.6308 142.577 37.154C144.992 33.3684 147.865 29.7253 151.214 26.7184C153.745 24.4455 156.594 22.5128 159.315 20.4812C160.994 19.2279 162.415 17.7726 164.261 16.7435Z"/>
	<path fill="#FFD901" transform="translate(-0.5 0)" d="M169.672 22.036L172.625 22.0148C183.969 22.3196 194.194 31.8245 201.12 40.0009C203.806 43.1717 206.032 46.6139 208.915 49.6399C207.844 50.2917 206.46 50.6481 205.281 51.0949C203.321 51.8381 201.381 52.6793 199.509 53.6243C193.589 56.6124 188.792 60.7343 184.096 65.3433C181.182 68.2035 178.305 71.147 175.794 74.375C169.968 81.8662 167.676 90.3442 166.752 99.647C166.324 103.955 165.728 108.529 165.83 112.852C166.015 120.765 167.735 128.46 169.051 136.226L170.758 148.25C171.061 150.112 171.696 151.926 171.937 153.784L169.299 150.895C164.896 145.809 159.824 141.228 155.029 136.509L139.071 120.62L130.97 113.339C127.514 109.993 124.408 106.025 121.645 102.087C122.963 96.698 125.569 91.2369 127.469 86C132.967 70.8522 138.032 55.2984 145.512 40.9763C147.845 36.5082 150.788 32.0602 154.96 29.125C157.025 27.6724 159.424 26.6154 161.685 25.5029C164.33 24.2015 166.853 22.9269 169.672 22.036Z"/>
	<path transform="translate(-0.5 0)" d="M317.662 236.801L333.875 236.749L361.97 236.756L379.502 236.756C382.768 236.751 386.187 236.544 389.438 236.836C391.702 237.038 394.721 237.511 396.5 239.021C397.277 239.682 397.846 240.639 398.306 241.542C399.358 243.602 400.103 245.86 400.988 248L405.362 257.681L412.849 272.697L422.564 294.648C423.878 297.949 424.929 301.342 425.521 304.849C425.882 306.984 425.769 309.255 425.774 311.418C425.782 314.55 425.87 317.673 425.404 320.78C425.05 323.144 424.136 325.329 424.243 327.75L424.603 328.275C424.862 328.727 424.899 329.281 424.74 329.768C424.31 331.088 422.978 332.399 422.025 333.373C418.519 336.959 414.797 339.423 410.402 341.761C404.227 344.761 397.761 345.018 391.004 345.013C386.892 345.01 382.737 344.907 378.667 344.267C376.848 343.981 369.078 341.772 367.797 342.186L366.111 342.779L363.481 341.287C362.083 340.181 363.646 337.829 364.269 336.682C369.718 326.64 372.152 315.391 371.467 303.96C371.047 296.95 369 290.164 365.347 284.158C362.893 280.122 359.818 276.529 356.716 272.982C354.252 270.164 351.801 267.333 349.079 264.758C345 260.901 340.33 257.41 335.764 254.15C328.403 248.892 320.364 244.281 313.569 238.314C314.904 237.743 316.233 237.095 317.662 236.801Z"/>
	<path fill="#FFD901" transform="translate(-0.5 0)" d="M321.19 240.032L340.706 240.048C345.713 240.236 350.734 240.867 355.747 240.877C359.974 240.886 364.238 240.275 368.467 240.085C376.995 239.702 385.397 240.019 393.86 241.059C396.947 245.936 398.895 251.752 401.314 256.991L410.006 275.343L414.929 287.211C417.266 292.845 419.675 298.645 421.116 304.583C421.998 308.218 422.153 312.422 421.658 316.131C421.255 319.147 420.157 322.094 419.172 324.963C418.384 327.258 417.602 329.889 416.153 331.866C414.908 333.564 413.392 334.767 411.72 336.028C408.634 337.749 405.585 339.163 402.125 339.964C399.279 340.622 396.397 340.662 393.5 340.823C385.274 341.28 377.157 340.836 369.002 339.692C374.257 330.059 375.825 319.384 375.798 308.552C375.785 303.5 375.503 298.542 374.147 293.648C370.917 281.991 363.228 273.458 354.841 265.185C352.576 262.952 350.378 260.541 347.892 258.555C344.026 255.468 339.794 253.036 335.793 250.165L329.408 245.172C326.817 243.275 323.986 241.607 321.19 240.032Z"/>
	<path transform="translate(-0.5 0)" d="M53.2906 242.751C53.9183 242.728 55.1162 242.488 55.5278 243.125C55.704 243.398 55.7802 244.371 55.8536 244.747C56.1529 246.276 56.4625 247.811 56.9181 249.304C60.2332 260.163 68.3916 270.406 77.4061 277.193C80.2269 279.316 83.3507 281.279 86.62 282.633C95.2999 286.226 105.559 286.721 114.83 286.745C118.893 286.756 123.078 286.919 127.113 286.376L152.305 281.761C154.673 281.323 156.997 280.703 159.388 280.39C160.144 280.291 160.112 280.297 160.706 280.75C160.805 281.197 160.911 281.665 160.92 282.125C160.94 283.253 160.08 284.319 159.395 285.143C157.585 287.32 155.237 289.113 153.224 291.107L140.449 303.782C137.896 306.107 135.058 308.041 132.61 310.492L118.837 325.504C113.947 330.424 109.077 336.376 102.528 339.022C99.1654 338.177 95.9306 336.697 92.7057 335.426L81.9101 331.393L52.6539 320.788C46.0279 318.179 39.7111 315.884 34.0384 311.418C31.393 309.335 28.7017 306.958 26.5947 304.32C23.6624 300.648 21.55 296.778 17.8421 293.733C17.1683 288.871 17.7498 283.82 18.9587 279.087C21.512 269.09 28.5574 260.822 36.5796 254.6C40.0466 251.91 43.7198 249.694 47.3586 247.268C49.4447 245.877 51.1078 244.04 53.2906 242.751Z"/>
	<path fill="#FFD901" transform="translate(-0.5 0)" d="M50.4698 248.375C50.6027 248.418 50.7703 248.405 50.8685 248.504C51.0682 248.707 51.3942 249.975 51.5207 250.313C52.6955 253.449 54.0552 256.434 55.689 259.359C58.6177 264.603 62.6883 269.166 66.8662 273.446C71.0743 277.756 75.2586 281.71 80.5936 284.619C87.5831 288.431 94.0046 289.407 101.749 290.229C108.685 290.964 115.368 291.205 122.324 290.419C127.812 289.798 133.179 288.542 138.625 287.671C144.265 286.769 149.708 286.534 155.239 284.927C148.922 289.222 143.582 295.722 138.211 301.113C131.768 307.582 125.031 313.81 119.074 320.737C114.746 325.824 109.794 330.968 103.966 334.375C102.675 335.13 102.085 334.926 100.717 334.558C96.2273 333.35 91.7446 331.246 87.3426 329.681L55.082 317.337C49.0288 314.79 42.7659 312.305 37.2286 308.723C34.016 306.645 31.1792 304.012 29.3063 300.651L25.9921 294.219C24.8038 291.933 23.5199 289.781 23.0293 287.217C22.5293 284.605 23.0908 280.895 23.8496 278.378L23.9683 278C28.0406 264.626 40.6324 257.073 50.4698 248.375Z"/>
	<path transform="translate(-0.5 0)" d="M310.483 30.6019C313.164 30.4222 316.435 30.1753 319.075 30.618C321.823 31.0789 326.352 33.3912 328.913 32.5042L330.443 32.0157L332.335 32.9903C334.862 34.6039 337.039 37.1254 338.784 39.5258C341.574 43.361 343.944 48.1506 345.043 52.7779C345.761 55.8011 345.835 58.8882 345.926 61.9794C346.085 67.3437 345.932 72.8907 345.079 78.1969L343.522 85.6007C343.3 86.6821 342.945 88.366 343.24 89.4477L343.523 90.375L343.646 90.75C343.386 91.6879 343.065 92.6857 342.439 93.4529C341.103 95.089 338.228 93.002 336.875 92.2466C327.069 86.7719 314.027 84.0982 302.828 85.543C299.503 85.9718 296.044 86.6332 292.897 87.806C286.277 90.273 280.454 94.3821 275.114 98.9379C268.602 104.495 263.128 110.386 257.884 117.142L239.331 143.145C238.495 141.319 237.924 139.831 237.778 137.825C237.445 133.219 237.729 128.426 237.733 123.798L237.745 96.7459L237.697 79.5419C237.651 75.3202 237.332 70.7354 237.901 66.5652C238.18 64.5207 238.391 62.3244 239.73 60.6552C240.486 59.7122 241.395 59.1089 242.446 58.5465C244.77 57.3034 247.265 56.3916 249.674 55.3281L263.719 48.9828C275.953 43.2778 287.913 36.7686 300.718 32.3745C303.797 31.3179 307.259 30.9466 310.483 30.6019Z"/>
	<path fill="#FFD901" transform="translate(-0.5 0)" d="M309.649 35.1021C311.779 34.8064 314.775 34.8155 316.903 35.1522C319.697 35.5945 322.218 36.5077 324.883 37.4088C328.817 38.7386 332.685 39.5887 335.49 42.923C341.042 49.5238 341.733 56.9875 341.919 65.2221C342.091 72.8151 341.372 80.3444 340.73 87.8942C337.263 85.5492 333.018 84.1996 328.994 83.1893C319.403 80.7817 309.001 79.9933 299.212 81.6826C295.335 82.3518 291.504 83.3043 287.91 84.9359C279.709 88.6591 273.115 95.0664 266.868 101.398C263.348 104.965 259.855 108.402 256.961 112.519L240.949 135.723L241.122 115.92L241.767 102.829C241.824 96.5497 241.113 90.3338 240.871 84.0705C240.645 78.2372 240.937 72.2353 241.602 66.437C241.675 65.7934 241.743 63.6594 242.102 63.2636C243.417 61.8135 245.762 60.8987 247.534 60.1785L253.389 57.6666L287.973 42.2941L299.75 37.539C303.024 36.3638 306.177 35.4746 309.649 35.1021Z"/>
	<path transform="translate(-0.5 0)" d="M282.714 295.875C283.135 295.785 283.379 295.653 283.797 295.8C284.733 296.131 285.746 297.182 286.481 297.84C288.906 300.013 291.105 302.364 293.364 304.702L304.227 315.788L312.106 324.375C319.662 331.858 327.805 338.716 335.092 346.492C336.596 348.096 338.026 349.884 339.013 351.861C339.571 352.98 340.003 353.844 339.739 355.105C338.834 359.423 336.415 363.772 334.851 367.934L326.188 392.526L320.914 406.249C319.668 409.446 318.518 412.684 316.963 415.75C314.323 420.953 310.378 426.114 305.841 429.847C303.896 431.448 301.705 432.742 299.669 434.224C297.92 435.498 296.246 437.747 294.375 438.667L290 438.917C279.924 439.056 269.907 435.183 262.697 428.106C258.838 424.319 255.014 419.617 251.975 415.154C250.515 413.011 249.288 410.715 247.78 408.607C246.69 407.084 244.956 405.865 244.046 404.271C243.644 403.566 243.653 402.664 243.646 401.875C243.764 401.676 243.815 401.417 244 401.278C244.359 401.011 245.54 400.914 246.002 400.835C247.478 400.582 248.857 400.273 250.29 399.843C256.99 397.832 262.956 394.077 268.319 389.641C272.727 385.995 277.281 381.519 280.271 376.625C284.289 370.049 286.025 362.743 286.933 355.173C288.538 341.795 287.241 328.776 284.828 315.597L282.959 305.314C282.446 302.767 281.249 299.419 281.488 296.875C281.904 296.228 282.045 296.193 282.714 295.875Z"/>
	<path fill="#FFD901" transform="translate(-0.5 0)" d="M285.923 301.818L314.497 331.022L326.721 342.163C328.593 344.013 330.287 346.078 331.95 348.116C333.238 349.693 334.729 351.382 335.627 353.211C336.187 354.352 335.573 355.897 335.188 357.066L328.79 374.556L323.385 389.817L316.742 405.528C314.168 411.432 311.596 418.042 307.216 422.875C303.169 427.341 297.64 429.574 292.366 432.245C290.434 433.185 288.677 433.894 286.503 433.98C275.062 434.436 264.457 425.088 257.617 416.746C254.86 413.385 252.352 409.367 249.147 406.434L248.949 406.258C252.194 404.911 255.6 403.83 258.696 402.165C264.773 398.899 269.894 394.374 274.796 389.583C278.643 385.824 282.191 382.146 284.991 377.513C288.862 371.106 290.095 364.251 290.977 356.945C291.908 349.235 292.137 341.349 291.25 333.625C290.636 328.286 289.367 323.1 288.511 317.808C287.64 312.432 287.224 307.122 285.923 301.818Z"/>
	<path transform="translate(-0.5 0)" d="M215.633 71.819C216.874 71.5796 218.475 71.7287 219.759 71.6986C219.695 77.0038 219.474 82.48 219.818 87.773C220.334 95.689 221.513 103.562 221.684 111.5L221.73 138.155C221.725 144.584 221.56 150.87 222.503 157.25C223.324 162.799 224.931 168.059 228.079 172.732C230.619 172.94 233.598 172.953 236.029 172.156L236.375 172.036C239.166 171.091 241.102 169.074 242.939 166.846C247.072 161.831 250.064 155.614 253.711 150.202C258.263 143.451 263.508 137.157 268.524 130.75C273.383 124.544 278.052 118.017 283.681 112.471C287.518 108.691 292.274 104.72 297.451 103.038C300.766 101.961 304.514 101.702 307.984 101.734C314.839 101.798 322.889 103.584 328.649 107.459C330.324 108.586 331.73 110.057 333.136 111.492C328.773 115.495 324.35 119.631 320.362 124.008L302.439 144.245C292.858 154.272 282.085 162.865 273.807 174.156C270.648 178.464 268.271 183.523 267.08 188.739C269.667 191.25 272.994 194.016 276.697 194.539L277 194.578C278.728 194.83 280.47 194.62 282.203 194.474C288.116 193.976 293.602 192.201 299.354 190.95C309.413 188.761 319.688 188.083 329.877 186.851C336.641 186.034 343.836 184.537 350.654 184.785C356.434 184.995 362.862 185.948 367.79 189.158C374.158 193.308 378.886 199.591 382.146 206.363C383.096 208.338 384.081 210.378 384.51 212.54C384.943 214.718 385.029 216.815 385.099 219.028C379.948 218.789 374.779 218.547 369.621 218.824L362.38 219.537L343.8 220.723L317.181 220.754C311.074 220.752 305.061 220.616 299 221.519C293.631 222.319 288.237 224.179 283.783 227.3L283.657 228.607C283.446 232.976 284.953 236.777 287.881 239.98C290.513 242.86 293.93 244.793 297.25 246.761L305.794 252.165L321.232 263.772C329.994 270.433 339.51 277.104 346.879 285.318C354.467 293.776 355.388 299.805 354.732 310.829C354.258 318.785 351.445 326.678 345.375 332.03L332.711 319.394L323.512 311.588L311.048 299.836C301.739 290.725 293.549 280.609 282.878 272.962C278.385 269.742 273.368 267.636 268.117 266.053C265.402 268.402 263.029 271.839 262.285 275.392C261.203 280.558 262.93 285.564 264.147 290.58C267.038 302.499 268.368 314.408 269.769 326.563C270.838 335.845 272.392 345.11 271.424 354.483C270.953 359.048 269.675 363.461 267.246 367.382C265.671 369.925 263.511 372.112 261.278 374.08C255.415 379.248 249.398 382.103 241.831 383.899L238.029 384.076C237.284 377.951 237.967 371.6 237.673 365.431L235.866 342.115L235.755 329.272L235.767 312.094C235.77 307.527 235.902 302.958 235.255 298.423C234.465 292.888 232.948 286.94 229.178 282.669C225.004 282.762 220.469 283.696 217.22 286.451C211.595 291.221 208.376 299.175 204.356 305.274C199.943 311.967 194.677 318.225 189.659 324.473L179.491 337.06C175.456 341.948 170.915 347.137 165.407 350.386C159.16 354.072 152.842 354.371 145.75 353.803C143.814 353.648 141.818 353.644 139.936 353.127L139.5 353.005C136.766 352.266 133.799 351.259 131.385 349.77C128.844 348.203 126.799 346.62 124.756 344.419C126.763 342.837 128.561 340.775 130.368 338.962L138.093 330.956L151.03 316.055C161.794 304.644 174.087 294.559 183.59 282.03C186.718 277.906 188.786 273.695 190.31 268.763C190.495 268.165 190.825 267.608 190.486 267.038C188.804 264.208 184.811 261.988 181.665 261.258L181.251 261.165C176.347 260.011 170.337 262.116 165.549 263.339C161.388 264.401 157.201 265.476 152.958 266.154L131.049 268.785C124.898 269.489 118.909 270.454 112.702 270.67C102.524 271.024 93.2192 270.477 85.4274 263.096C78.0272 256.087 73.0235 247.356 72.7295 237.028C79.1221 236.264 85.7472 236.975 92.1838 236.661L113.787 234.812C118.378 234.534 123.086 234.734 127.689 234.734L145.252 234.741C149.369 234.738 153.544 234.89 157.635 234.368C162.711 233.721 169.023 232.369 173.154 229.162C173.756 228.695 173.915 228.165 173.953 227.43C174.163 223.289 173.023 219.362 170.282 216.233C167.92 213.536 164.849 211.651 161.818 209.8L151.677 203.444L133.227 189.402C125.666 183.529 117.885 177.948 111.353 170.886C108.617 167.927 105.974 164.617 104.465 160.842C102.807 156.693 102.578 152.125 102.775 147.709C103.101 140.408 104.53 133.968 108.695 127.878C109.538 126.645 110.897 124.81 112.125 124.002C112.125 124.002 112.52 123.789 112.597 123.827C113.126 124.082 114.079 125.357 114.536 125.825L120.612 132.017C124.717 136.172 129.133 139.814 133.514 143.654L144.698 153.915C154.424 163.051 162.623 173.628 173.402 181.655C178.299 185.302 183.655 188.384 189.638 189.807C190.709 188.751 191.692 187.504 192.578 186.29C198.396 178.324 194.702 169.071 192.542 160.5C191.659 156.995 191.081 153.375 190.534 149.803L187.152 121.401C186.595 116.278 185.521 110.631 185.842 105.5C186.264 98.7691 187.491 92.4701 191.568 86.9733C197.082 79.5377 206.38 73.2384 215.633 71.819Z"/>
	<path fill="#FFD901" transform="translate(-0.5 0)" d="M217.206 74.625L217.605 74.6581C217.865 76.1236 216.901 78.8318 216.705 80.4375C216.309 83.6823 215.923 87.0822 215.899 90.3485C215.878 93.3005 216.29 96.269 216.508 99.2118L217.632 116.68L217.725 141.356C217.737 150.517 217.342 160.417 221.258 168.935C222.696 172.064 225.525 176.358 228.951 177.529C229.729 177.794 230.553 178.103 231.365 178.236C232.408 178.407 233.511 178.084 234.524 177.852C238.492 176.942 241.508 175.351 244.423 172.484C250.097 166.904 253.96 159.104 258.405 152.506C264.178 143.938 270.798 136.21 277.494 128.375C282.275 122.781 286.83 116.43 292.984 112.258C295.007 110.886 297.165 109.62 299.495 108.853C300.88 108.398 302.434 108.321 303.875 108.152C313.042 107.074 321.195 109.675 330.066 111.383L327.178 113.045C324.325 114.733 321.92 117.045 319.554 119.343C317.324 121.508 315.035 123.682 312.974 126.007C309.771 129.623 306.917 133.439 303.542 136.926L283.475 157.486C278.847 162.227 273.981 166.897 269.963 172.178C267.506 175.407 265.441 179.275 264.461 183.228C263.671 186.415 263.33 190.63 265.257 193.529C268.009 197.669 274.177 199.685 278.901 199.873C282.681 200.023 286.709 198.848 290.375 198.026L302 195.519C307.802 194.333 313.883 193.403 319.778 192.83L329.396 192.154L340.375 191.289C343.939 191.011 347.272 190.629 350.875 190.771C353.211 190.862 355.698 191.413 357.979 191.921C370.538 194.717 376.639 207.014 382.924 216.949L381.984 216.691C377.118 215.555 371.753 214.907 366.754 214.792C363.326 214.713 359.908 215.355 356.503 215.625L337.544 216.719L312.681 216.747C307.67 216.747 302.761 216.67 297.781 217.34C293.647 217.896 289.057 219.305 285.522 221.561C282.526 223.474 279.684 226.111 278.92 229.728C278.172 233.277 279.713 237.481 281.943 240.222C287.477 247.022 295.14 250.99 302.225 255.89L315.248 265.309L328.409 276.393C334.196 281.294 340.714 286.118 344.882 292.546C352.34 304.047 348.254 316.94 345.595 329.28L343.892 326.254C341.979 323.24 339.273 320.514 336.786 317.97L316.569 299.154L292.41 275.726C289.737 273.314 287.053 270.722 284.158 268.583C280.51 265.887 276.074 263.822 271.626 262.888C269.058 262.349 265.254 263.152 263.106 264.631C259.145 267.36 257.387 272.63 257.187 277.261C256.878 284.45 259.316 290.943 260.625 297.896L263.337 313.875L264.796 329.33C265.594 337.912 266.793 347.464 265.248 356C262.833 369.339 250.005 375.018 240.025 382.028C243.765 366.234 240.415 349.923 240.044 333.944C239.76 321.682 240.904 309.293 239.418 297.062C238.919 292.954 237.702 288.163 235.477 284.625C233.762 281.897 230.824 278.49 227.503 277.834C223.47 277.038 218.746 279.062 215.734 281.625C209.345 287.062 205.233 295.055 200.531 301.888C194.324 310.909 187.53 319.24 180.44 327.57C175.484 333.394 170.702 339.837 164.149 343.961C152.731 351.146 139.853 347.341 127.678 344.585L130.75 342.957C140.11 337.11 146.551 327.148 154.102 319.345L179.836 293.189C182.476 290.275 185.236 287.304 187.605 284.168C190.056 280.923 192.491 276.893 193.397 272.893C194.175 269.46 194.291 265.175 192.309 262.116C190.242 258.926 186.078 257.377 182.5 256.679C179.726 256.137 176.914 255.884 174.113 256.4L156.686 260.174C143.055 262.647 129.177 263.94 115.348 264.535C111.028 264.721 105.856 265.307 101.625 264.459C93.8815 262.908 87.7584 258.051 83.0894 251.864C79.9937 247.762 77.4647 243.062 74.58 238.782C79.98 240.722 86.7404 240.848 92.4582 240.939C94.9035 240.977 97.4009 240.511 99.8438 240.371L122.374 239.092C126.264 238.927 130.175 239.135 134.068 239.183L147.797 239.073C154.629 238.964 160.755 238.797 167.306 236.601C171.298 235.263 176.447 232.455 178.274 228.451C180.575 223.409 177.767 217.656 174.417 213.875C168.779 207.512 161.761 204.243 154.944 199.525L143.282 191.206L128.866 179.001C125.313 175.997 121.388 173.099 118.174 169.74C115.229 166.663 111.815 162.452 110.311 158.482L110.159 158.068C109.103 155.243 108.875 152.247 108.828 149.25C108.706 141.505 110.501 134.24 112.347 126.779L115.43 131.842C121.218 139.587 129.492 145.294 136.418 151.946L164.285 179.376C168.4 183.099 172.376 186.795 177.171 189.654C179.87 191.263 182.395 192.284 185.5 192.776C188.288 193.217 192.484 192.88 194.874 191.293C199.105 188.483 200.634 182.133 200.734 177.35C200.782 175.043 200.249 172.599 199.831 170.336L197.094 157.212C194.638 144.456 193.3 131.774 192.457 118.825C192.039 112.409 191.398 106.125 192.622 99.7471C195.137 86.6483 207.25 81.2917 217.206 74.625Z"/>
</svg>
