<?xml version="1.0" encoding="UTF-8" standalone="no"?>
<!-- Created with Inkscape (http://www.inkscape.org/) -->

<svg
   width="298.45847"
   height="250.7392"
   viewBox="0 0 78.967138 66.341414"
   version="1.1"
   id="svg1"
   inkscape:version="1.3.2 (091e20e, 2023-11-25, custom)"
   sodipodi:docname="wisdom_weyn_logo_2.svg"
   xml:space="preserve"
   inkscape:export-filename="wisdom_weyn_logo_3.svg"
   inkscape:export-xdpi="20.927999"
   inkscape:export-ydpi="20.927999"
   xmlns:inkscape="http://www.inkscape.org/namespaces/inkscape"
   xmlns:sodipodi="http://sodipodi.sourceforge.net/DTD/sodipodi-0.dtd"
   xmlns="http://www.w3.org/2000/svg"
   xmlns:svg="http://www.w3.org/2000/svg"><sodipodi:namedview
     id="namedview1"
     pagecolor="#ffffff"
     bordercolor="#000000"
     borderopacity="0.25"
     inkscape:showpageshadow="2"
     inkscape:pageopacity="0.0"
     inkscape:pagecheckerboard="0"
     inkscape:deskcolor="#d1d1d1"
     inkscape:document-units="mm"
     inkscape:lockguides="true"
     showguides="true"
     showgrid="true"
     inkscape:zoom="1.4142136"
     inkscape:cx="103.23759"
     inkscape:cy="211.77848"
     inkscape:window-width="2560"
     inkscape:window-height="1377"
     inkscape:window-x="-8"
     inkscape:window-y="-8"
     inkscape:window-maximized="1"
     inkscape:current-layer="layer1"><inkscape:grid
       id="grid4"
       units="mm"
       originx="-51.299286"
       originy="-78.928038"
       spacingx="1"
       spacingy="1"
       empcolor="#0099e5"
       empopacity="0.30196078"
       color="#0099e5"
       opacity="0.14901961"
       empspacing="7"
       dotted="false"
       gridanglex="30"
       gridanglez="30"
       visible="true"
       enabled="false" /><sodipodi:guide
       position="0,132.29167"
       orientation="0,500"
       inkscape:locked="true"
       id="guide2" /><sodipodi:guide
       position="132.29167,132.29167"
       orientation="500,0"
       inkscape:locked="true"
       id="guide3" /><sodipodi:guide
       position="132.29167,0"
       orientation="0,-500"
       inkscape:locked="true"
       id="guide4" /><sodipodi:guide
       position="0,0"
       orientation="-500,0"
       inkscape:locked="true"
       id="guide5" /><inkscape:grid
       id="grid5"
       units="mm"
       originx="-25.367439"
       originy="-50.385128"
       spacingx="1"
       spacingy="1"
       empcolor="#0099e5"
       empopacity="0.30196078"
       color="#0099e5"
       opacity="0.14901961"
       empspacing="5"
       dotted="false"
       gridanglex="30"
       gridanglez="30"
       visible="true" /></sodipodi:namedview><defs
     id="defs1"><linearGradient
       id="swatch114"
       inkscape:swatch="solid"><stop
         style="stop-color:#c1c4b2;stop-opacity:1;"
         offset="0"
         id="stop114" /></linearGradient></defs><g
     inkscape:label="Layer 1"
     inkscape:groupmode="layer"
     id="layer1"
     transform="translate(-51.299285,-78.928036)"><g
       id="g2"
       transform="translate(25.553848,50.384794)"><path
         id="path1"
         style="fill:#000000;fill-opacity:1;stroke:#ffffff;stroke-width:0.4;stroke-linecap:round;stroke-linejoin:bevel;stroke-dasharray:none;stroke-dashoffset:0;stroke-opacity:0;paint-order:markers stroke fill"
         inkscape:highlight-color="#3bee68"
         d="m 68.316974,28.743468 c -2.78995,-0.01843 -6.016436,1.10375 -9.729638,3.360002 -1.895827,1.151954 -2.915231,1.483654 -3.319694,1.080037 -0.380451,-0.379649 -2.990829,-0.46095 -7.4967,-0.23306 -6.879553,0.347939 -6.912757,0.34378 -6.912757,-0.896586 0,-0.886768 -0.283243,-1.191574 -0.981335,-1.05575 -0.607193,0.118138 -0.985921,0.707307 -0.993221,1.545642 -0.0092,1.051215 -1.076687,2.123975 -4.765601,4.787305 l -4.754232,3.432348 -0.158646,6.300908 c -0.145172,5.753506 -0.06858,6.324454 0.886767,6.573759 0.661746,0.172687 1.371325,1.286072 1.930115,3.029789 l 0.88315,2.756938 h -3.012219 c -3.808937,0 -4.514136,0.764235 -3.572675,4.881872 1.868559,8.172455 6.171096,15.058268 12.417613,20.491773 6.060527,5.271723 13.649266,8.655999 22.352124,9.624218 7.457719,0.829694 12.87197,-0.541209 14.21567,-1.029394 0.678476,-0.246502 0.663957,-0.907864 -0.06925,-3.378605 -1.121744,-3.780057 -2.136622,-5.73126 -4.488615,-8.628931 l -1.930115,-2.378149 h 2.211751 c 2.82893,0 3.482645,-0.803021 2.958993,-3.636471 -0.670145,-3.626094 -2.013072,-5.339203 -6.830074,-8.711096 -1.041685,-0.729176 -1.270062,-1.454221 -1.349272,-4.288627 -0.08598,-3.076947 0.03301,-3.469049 1.213879,-4.005957 1.942082,-0.883015 1.617323,-2.039304 -1.494482,-5.322673 -1.541904,-1.62691 -2.803447,-3.139436 -2.803447,-3.361035 0,-0.221599 0.669698,-1.279276 1.488282,-2.350244 l 1.488281,-1.947168 1.563729,3.243213 c 1.131877,2.348322 2.229484,3.676012 3.978052,4.809525 2.461915,1.595949 2.599354,1.607764 8.582938,0.752409 0.308381,-0.04408 0.64036,0.612044 0.73794,1.458309 0.167805,1.455317 0.05378,1.538924 -2.102714,1.538924 -1.254006,0 -2.279965,0.237333 -2.279965,0.527617 0,0.738546 2.304092,2.270145 3.415296,2.270145 0.652566,0 1.010596,0.654948 1.223181,2.236556 0.419553,3.121422 3.524456,7.140217 7.116878,9.297107 l 2.998267,1.799891 -1.522905,0.577742 c -0.837612,0.317793 -2.152037,0.578259 -2.921268,0.578259 -1.371435,0 -1.355062,0.05133 0.854728,2.666504 1.239463,1.466845 4.53373,5.650501 4.51807,7.491533 0,0 2.615931,-2.184482 5.117517,-5.464783 0.826763,-1.084122 1.670087,-2.267283 2.406055,-3.442167 -2.933459,-0.24157 -5.757555,-1.554362 -8.194332,-3.828707 -1.480945,-1.382234 -2.332071,-2.481299 -3.386356,-4.371826 -0.554503,-0.994346 -1.358842,-3.245202 -1.199927,-3.357935 0.05035,-0.03572 0.385184,0.449407 0.744141,1.07797 2.54187,4.450992 6.310511,7.829811 10.688236,8.893514 0.637487,0.154898 1.40005,0.233439 2.118733,0.266651 0.1908,-0.353965 0.3845,-0.709233 0.53641,-1.050065 -1.195663,-2.543725 -4.306267,-4.790296 -7.80625,-6.851262 l -1.80557,-1.062984 c -0.917438,-0.245486 -1.792256,-0.734986 -2.574003,-1.450557 -0.637013,-0.583091 -1.003269,-1.04682 -1.456759,-1.844332 -0.238513,-0.41946 -0.584081,-1.368891 -0.515731,-1.416451 0.02166,-0.01507 0.165476,0.189597 0.319877,0.454752 0.912225,1.566571 2.245178,2.749387 3.755327,3.358969 l 2.454113,-0.207223 c -1.423619,-0.640656 -2.779968,-1.700314 -4.011124,-3.151746 -1.172457,-1.382229 -1.8463,-2.481303 -2.680974,-4.371826 -0.438995,-0.994344 -1.075624,-3.244685 -0.949812,-3.357418 0.03986,-0.03572 0.304926,0.448893 0.589111,1.077454 2.012384,4.450984 4.996196,7.829812 8.462016,8.893514 0.663004,0.203486 1.552096,0.378532 2.298051,0.469739 3.976948,-0.712237 4.831608,-2.253103 4.788338,-6.838342 -0.0263,-2.784486 0.11258,-3.22771 1.01234,-3.22771 0.57361,0 1.32801,-0.53119 1.67638,-1.180807 0.54957,-1.024724 0.35215,-1.468808 -1.49086,-3.35225 0,0 -1.57724,-1.319035 -2.12442,-2.170927 -1.156648,-1.800773 -2.305801,-5.992399 -2.305801,-5.992399 -0.587909,-1.312825 -1.109106,-2.452179 -1.935799,-3.560506 -2.03659,0.231694 -3.808721,1.323054 -4.921664,3.045292 -0.167264,0.258833 -0.325934,0.453574 -0.352433,0.433048 -0.08365,-0.06479 0.270323,-1.031215 0.528133,-1.441772 0.490178,-0.780585 0.896653,-1.214696 1.616439,-1.727026 0.767806,-0.546509 1.62861,-0.89315 2.544031,-1.035079 -0.157949,-0.1769 -0.323645,-0.353871 -0.503845,-0.531234 -0.732191,0.09441 -1.788682,0.383752 -2.605526,0.734322 -3.263925,1.400793 -5.662115,4.85391 -6.603731,9.507947 -0.132972,0.657236 -0.281781,1.168816 -0.331246,1.136881 -0.156132,-0.100789 0.08101,-2.409166 0.280603,-3.447851 0.379505,-1.974828 1.040999,-3.172812 1.89084,-4.671033 1.511975,-2.665522 4.235213,-3.497858 6.825424,-3.764628 -4.014264,-3.531745 -8.855565,-4.027151 -14.65337,-1.484664 -2.350919,1.030941 -2.561107,1.041329 -3.083532,0.15813 -2.252895,-3.808675 -5.118849,-5.717561 -8.705929,-5.741252 z m -0.30334,2.231389 c 2.802931,-0.111734 5.026095,0.995943 6.196004,3.253548 1.159479,2.237477 1.081818,2.636611 -0.59738,3.057178 -0.796572,0.199505 -2.48528,1.015924 -3.752742,1.814359 -1.267464,0.798434 -3.616847,2.824923 -5.220353,4.503601 l -2.915585,3.052527 -0.697632,-2.148189 c -0.383777,-1.181529 -1.447207,-3.642611 -2.363163,-5.468917 -1.939236,-3.866602 -2.007908,-3.747656 3.782198,-6.531384 1.996633,-0.959928 3.886892,-1.465683 5.568653,-1.532723 z m -14.633733,3.713468 0.997356,1.317749 c 1.861993,2.460765 3.544336,6.614994 2.927986,7.23005 -1.041263,1.039078 -11.038094,5.092511 -15.151013,6.143294 -2.216849,0.566367 -5.560328,1.202322 -7.429521,1.41335 l -3.398242,0.383956 v -1.952852 c 0,-1.073864 -0.154855,-3.079862 -0.344165,-4.458126 l -0.344165,-2.506307 3.567741,-0.736906 c 4.197712,-0.867037 13.797601,-4.097112 16.958138,-5.706111 z m -9.718269,0.731738 3.083532,0.02325 -3.364135,1.291911 c -1.850285,0.710568 -4.246958,1.474004 -5.32629,1.696537 l -1.962671,0.404626 2.242757,-1.719791 c 1.892941,-1.451686 2.724011,-1.716298 5.326807,-1.696538 z M 75.7744,45.549161 c 0.23876,0.05554 0.40721,0.314628 0.40721,0.680062 0,0.487242 -0.399531,0.886251 -0.887801,0.886251 -0.99014,0 -0.817438,-1.204473 0.222209,-1.550293 0.09155,-0.03045 0.178796,-0.03453 0.258382,-0.01602 z m 19.774504,1.463476 c 0.23876,0.05554 0.407727,0.315145 0.407727,0.680579 0,0.487245 -0.399534,0.885734 -0.887801,0.885734 -0.99014,0 -0.817955,-1.20447 0.221692,-1.550293 0.09155,-0.03045 0.178795,-0.03453 0.258382,-0.01602 z m -36.791553,2.343527 c 0.342591,-0.0014 0.603581,0.28861 0.603581,0.803568 0,0.44344 -0.225714,0.945433 -0.501778,1.115694 -0.577187,0.355972 -1.27334,-1.083133 -0.767912,-1.5875 0.225613,-0.225138 0.460554,-0.330901 0.666109,-0.331762 z m -6.623885,5.991882 1.791622,1.719792 c 2.241933,2.152275 4.069774,2.61653 7.099308,1.802474 2.757612,-0.740991 3.085258,-0.568791 2.598291,1.367358 -0.287699,1.143877 -0.701138,1.425236 -2.098063,1.425236 -1.533355,0 -1.651543,0.106673 -0.993738,0.89762 0.410563,0.493656 1.289177,1.103352 1.952336,1.354956 0.713799,0.270814 1.340116,1.128296 1.535307,2.102197 0.235481,1.174947 1.099345,2.139838 3.022554,3.376021 2.812682,1.80791 3.933884,3.188476 4.669483,5.74797 0.368527,1.282291 0.24606,1.577249 -0.768946,1.848983 -0.664234,0.177825 -1.838707,0.295286 -2.60966,0.260966 -7.097002,-0.315896 -12.572182,-3.818205 -15.187186,-9.714136 -1.165757,-2.62838 -1.933549,-8.5223 -1.39113,-10.678935 z"
         sodipodi:nodetypes="ssssssccccsccssssssccssssssssccssssssscccsscscsssssccccssssccssssscssccsccssssccssscscssscccsssccscscsccssccccssccsssssssssssssssscssssssssscscccscss" /></g></g></svg>
