<?xml version="1.0" encoding="UTF-8" standalone="no"?>
<!-- Created with Inkscape (http://www.inkscape.org/) -->

<svg
   width="297.83896"
   height="256.53015"
   viewBox="0 0 78.803226 67.873604"
   version="1.1"
   id="svg1"
   inkscape:version="1.3.2 (091e20e, 2023-11-25)"
   sodipodi:docname="Final_one_wisdom (1).svg"
   xml:space="preserve"
   inkscape:export-filename="wisdom_weyn_logo_4.png"
   inkscape:export-xdpi="20.927999"
   inkscape:export-ydpi="20.927999"
   xmlns:inkscape="http://www.inkscape.org/namespaces/inkscape"
   xmlns:sodipodi="http://sodipodi.sourceforge.net/DTD/sodipodi-0.dtd"
   xmlns="http://www.w3.org/2000/svg"
   xmlns:svg="http://www.w3.org/2000/svg"
   xmlns:rdf="http://www.w3.org/1999/02/22-rdf-syntax-ns#"
   xmlns:cc="http://creativecommons.org/ns#"><sodipodi:namedview
     id="namedview1"
     pagecolor="#ffffff"
     bordercolor="#000000"
     borderopacity="0.25"
     inkscape:showpageshadow="2"
     inkscape:pageopacity="0.0"
     inkscape:pagecheckerboard="0"
     inkscape:deskcolor="#d1d1d1"
     inkscape:document-units="mm"
     inkscape:lockguides="true"
     showguides="true"
     showgrid="true"
     inkscape:zoom="0.92998456"
     inkscape:cx="-15.591657"
     inkscape:cy="153.22835"
     inkscape:window-width="1680"
     inkscape:window-height="1050"
     inkscape:window-x="0"
     inkscape:window-y="0"
     inkscape:window-maximized="0"
     inkscape:current-layer="layer1"
     inkscape:export-bgcolor="#ffffff00"><inkscape:grid
       id="grid4"
       units="mm"
       originx="61.72785"
       originy="-123.27828"
       spacingx="1"
       spacingy="1"
       empcolor="#0099e5"
       empopacity="0.30196078"
       color="#0099e5"
       opacity="0.14901961"
       empspacing="7"
       dotted="false"
       gridanglex="30"
       gridanglez="30"
       visible="true"
       enabled="false" /><sodipodi:guide
       position="0,132.29167"
       orientation="0,500"
       inkscape:locked="true"
       id="guide2" /><sodipodi:guide
       position="132.29167,132.29167"
       orientation="500,0"
       inkscape:locked="true"
       id="guide3" /><sodipodi:guide
       position="132.29167,0"
       orientation="0,-500"
       inkscape:locked="true"
       id="guide4" /><sodipodi:guide
       position="0,0"
       orientation="-500,0"
       inkscape:locked="true"
       id="guide5" /><inkscape:grid
       id="grid5"
       units="mm"
       originx="87.659689"
       originy="-94.735364"
       spacingx="1"
       spacingy="1"
       empcolor="#0099e5"
       empopacity="0.30196078"
       color="#0099e5"
       opacity="0.14901961"
       empspacing="5"
       dotted="false"
       gridanglex="30"
       gridanglez="30"
       visible="true" /></sodipodi:namedview><defs
     id="defs1"><inkscape:path-effect
       effect="fillet_chamfer"
       id="path-effect1"
       is_visible="true"
       lpeversion="1"
       nodesatellites_param="F,0,0,1,0,0,0,1 @ F,0,0,1,0,3.5676305,0,1 @ F,0,0,1,0,1.917836,0,1 @ F,0,0,1,0,1.917836,0,1 @ F,0,0,1,0,3.5430016,0,1 @ F,0,0,1,0,1.4943116,0,1 @ F,0,0,1,0,1.1445813,0,1 @ F,0,0,1,0,0,0,1 @ F,0,0,1,0,0,0,1 @ F,0,0,1,0,0,0,1 @ F,0,0,1,0,0,0,1 @ F,0,0,1,0,0,0,1 @ F,0,0,1,0,0,0,1 @ F,0,0,1,0,0,0,1 @ F,0,0,1,0,0,0,1 @ F,0,0,1,0,0,0,1 @ F,0,0,1,0,0,0,1 @ F,0,0,1,0,0,0,1 @ F,0,0,1,0,0,0,1 @ F,0,0,1,0,0,0,1 @ F,0,0,1,0,0,0,1 @ F,0,0,1,0,0,0,1 @ F,0,0,1,0,0,0,1 @ F,0,0,1,0,0,0,1 @ F,0,0,1,0,0,0,1 @ F,0,0,1,0,0,0,1 @ F,0,0,1,0,0,0,1 @ F,0,0,1,0,0,0,1 @ F,0,0,1,0,0,0,1 @ F,0,0,1,0,0,0,1 @ F,0,0,1,0,0,0,1 @ F,0,0,1,0,0,0,1 @ F,0,0,1,0,0.60774099,0,1 @ F,0,0,1,0,0,0,1 @ F,0,0,1,0,0,0,1 @ F,0,0,1,0,0,0,1 @ F,0,0,1,0,0,0,1 @ F,0,0,1,0,0,0,1 @ F,0,0,1,0,0,0,1 @ F,0,0,1,0,0.15086581,0,1 @ F,0,0,1,0,0,0,1 @ F,0,0,1,0,0,0,1 @ F,0,0,1,0,0,0,1 @ F,0,0,1,0,0,0,1 @ F,0,0,1,0,0,0,1 @ F,0,0,1,0,0,0,1 @ F,0,0,1,0,0,0,1 @ F,0,0,1,0,0,0,1 @ F,0,0,1,0,0.38829402,0,1 @ F,0,0,1,0,0,0,1 @ F,0,0,1,0,0,0,1 @ F,0,0,1,0,0,0,1 @ F,0,0,1,0,0,0,1 @ F,0,0,1,0,0,0,1 @ F,0,0,1,0,0.7476155,0,1 @ F,0,0,1,0,0,0,1 @ F,0,0,1,0,0,0,1 @ F,0,0,1,0,0,0,1 @ F,0,0,1,0,0,0,1 @ F,0,0,1,0,0,0,1 @ F,0,0,1,0,0,0,1 @ F,0,0,1,0,0,0,1 @ F,0,0,1,0,0,0,1 @ F,0,0,1,0,0,0,1 @ F,0,0,1,0,0,0,1 @ F,0,0,1,0,0,0,1 @ F,0,0,1,0,0,0,1 @ F,0,0,1,0,0,0,1 @ F,0,0,1,0,0,0,1 @ F,0,0,1,0,0,0,1 @ F,0,0,1,0,0,0,1 @ F,0,0,1,0,0,0,1 @ F,0,0,1,0,0,0,1 @ F,0,0,1,0,0,0,1 @ F,0,0,1,0,0,0,1 @ F,0,0,1,0,0,0,1 @ F,0,0,1,0,0,0,1 @ F,0,0,1,0,0,0,1 @ F,0,0,1,0,0.68913724,0,1 @ F,0,0,1,0,0,0,1 @ F,0,0,1,0,0,0,1 @ F,0,0,1,0,0,0,1 @ F,0,0,1,0,0,0,1 @ F,0,0,1,0,0,0,1 | F,0,0,1,0,0,0,1 @ F,0,0,1,0,0,0,1 @ F,0,0,1,0,0,0,1 @ F,0,0,1,0,0,0,1 @ F,0,0,1,0,0,0,1 @ F,0,0,1,0,1.2725975,0,1 @ F,0,0,1,0,0,0,1 @ F,0,0,1,0,0,0,1 | F,0,0,1,0,3.3784164,0,1 @ F,0,0,1,0,2.3065906,0,1 @ F,0,0,1,0,3.0321747,0,1 @ F,0,0,1,0,2.7758755,0,1 | F,0,0,1,0,0,0,1 @ F,0,0,1,0,0,0,1 @ F,0,0,1,0,0,0,1 @ F,0,0,1,0,0,0,1 @ F,0,0,1,0,0,0,1 | F,0,0,1,0,0,0,1 @ F,0,0,1,0,0,0,1 @ F,0,0,1,0,0,0,1 @ F,0,0,1,0,0,0,1 @ F,0,0,1,0,0,0,1 | F,0,0,1,0,0,0,1 @ F,0,0,1,0,0,0,1 @ F,0,0,1,0,0,0,1 @ F,0,0,1,0,0,0,1 | F,0,0,1,0,0,0,1 @ F,0,0,1,0,0,0,1 @ F,0,0,1,0,0,0,1 @ F,0,0,1,0,0,0,1 @ F,0,0,1,0,0,0,1 @ F,0,0,1,0,0,0,1 @ F,0,0,1,0,0,0,1 @ F,0,0,1,0,0,0,1 @ F,0,0,1,0,0,0,1 @ F,0,0,1,0,0,0,1 @ F,0,0,1,0,0,0,1 @ F,0,0,1,0,0,0,1 @ F,0,0,1,0,0,0,1 @ F,0,0,1,0,0,0,1"
       radius="0"
       unit="px"
       method="auto"
       mode="F"
       chamfer_steps="1"
       flexible="false"
       use_knot_distance="true"
       apply_no_radius="true"
       apply_with_radius="true"
       only_selected="false"
       hide_knots="false" /><linearGradient
       id="swatch64"
       inkscape:swatch="solid"><stop
         style="stop-color:#5a1616;stop-opacity:1;"
         offset="0"
         id="stop64" /></linearGradient><linearGradient
       id="swatch114"
       inkscape:swatch="solid"><stop
         style="stop-color:#c1c4b2;stop-opacity:1;"
         offset="0"
         id="stop114" /></linearGradient></defs><g
     inkscape:label="Layer 1"
     inkscape:groupmode="layer"
     id="layer1"
     transform="translate(61.727844,-123.27828)"
     style="display:inline"><path
       style="fill:#000000;fill-opacity:1;stroke-width:0.192998"
       d="m -19.122173,123.2785 c -1.972601,-0.013 -4.163436,0.54415 -6.590224,1.66919 -1.786669,0.82828 -3.139416,1.69081 -3.139416,1.69081 -0.573821,0.34867 -1.053224,0.5962 -1.458288,0.76855 -0.959113,0.40809 -1.861412,0.31149 -1.861412,0.31149 0,0 0,0 0,0 1.042781,0 -2.688161,0.0573 -3.692257,0.39448 -10.969332,3.68333 -16.518738,5.119 -19.32725,5.7886 -1.721686,0.41047 -2.904142,2.98337 -3.033851,4.93476 -0.185802,2.79527 -0.323645,6.10579 0.898234,7.61725 0.50804,0.62844 1.858123,1.17209 2.136289,1.93095 0.453065,1.23599 0.32814,3.04114 0.455308,4.45105 0.05666,0.62818 -0.311375,1.1242 -0.943509,1.1242 h -1.867638 c -1.917985,0 -3.388133,0.41928 -4.181657,1.31517 1.97174,20.31781 19.025728,35.83151 39.438941,35.87688 3.787856,-1.5e-4 7.55621,-0.54221 11.19053,-1.60972 -0.15245,-1.28829 -0.68936,-3.59419 -1.10433,-4.99246 -1.12174,-3.78005 -2.13663,-5.73127 -4.48861,-8.62893 l -1.93012,-2.37815 h 2.21175 c 2.82892,0 3.48265,-0.80303 2.959,-3.63647 -0.67016,-3.62609 -2.01308,-5.33921 -6.83008,-8.7111 -1.04168,-0.72917 -1.27006,-1.45423 -1.34927,-4.28863 -0.086,-3.07694 0.033,-3.46904 1.21388,-4.00595 1.94208,-0.88301 1.61731,-2.03932 -1.49448,-5.32268 -1.5419,-1.6269 -2.80345,-3.13943 -2.80345,-3.36103 0,-0.2216 0.6697,-1.27928 1.48828,-2.35025 l 1.48828,-1.94716 1.56373,3.24321 c 1.13188,2.34832 2.22949,3.67602 3.97805,4.80952 2.46191,1.59595 2.59936,1.60776 8.5829404,0.75241 0.30838,-0.0441 0.64036,0.61204 0.73794,1.45831 0.16781,1.45531 0.0538,1.53893 -2.1027099,1.53893 -1.2540005,0 -2.2799705,0.23732 -2.2799705,0.52761 0,0.73854 2.3041005,2.27015 3.4153004,2.27015 0.65257,0 1.0106,0.65495 1.22318,2.23655 0.41956,3.12142 3.52446,7.14022 7.11688001,9.29711 l 2.47720759,1.48709 c 0.2877748,0.17276 0.2690006,0.41532 -0.044014,0.53648 -1.2485893,0.48327 -2.52717678,0.89051 -3.87910329,0.93232 -1.37143001,0 -1.35506001,0.0513 0.85473,2.66651 0.91237,1.07974 4.12839999,5.53146 5.29372999,8.29355 2.9073278,-2.80648 5.3692906,-6.04024 7.3008496,-9.5896 -2.7988196,-0.48533 -6.6129396,-1.95603 -8.7472696,-3.94808 -1.48094,-1.38224 -2.33208,-2.4813 -3.38635999,-4.37182 -0.48231524,-0.86488 -1.15363422,-2.6804 -1.21568537,-3.21267 -0.009345,-0.0802 0.0761634,-0.11368 0.12717145,-0.0515 0.13772837,0.16786 0.37919991,0.54025 0.63273392,0.98421 2.54186999,4.45098 6.31051999,7.82982 10.68822959,8.89352 0.40347,0.098 1.60488,0.32529 2.56936,0.48317 0.237046,-0.4221 0.466355,-0.8485 0.68781,-1.27899 -1.55282,-2.33125 -5.2676696,-4.98951 -8.4082696,-6.83886 l -1.80558,-1.06298 c -0.91744,-0.24549 -1.79225,-0.73499 -2.574,-1.45056 -0.63700999,-0.58309 -1.00326999,-1.04682 -1.45675999,-1.84433 -0.14036636,-0.24686 -0.34072223,-0.62716 -0.46791089,-0.90803 -0.0868391,-0.19177 0.0716936,-0.32028 0.20129351,-0.15753 0.0242711,0.0305 0.0481167,0.065 0.0707674,0.10386 0.91222,1.56657 2.24517999,2.74939 3.75531999,3.35897 l 2.45412,-0.20723 c -1.42362,-0.64066 -2.77998,-1.70031 -4.01113,-3.15174 -1.17245999,-1.38223 -1.84628999,-2.48131 -2.68097,-4.37183 -0.288516,-0.65351 -0.6624019,-1.84955 -0.8491036,-2.6247 -0.095648,-0.39712 0.099309,-0.46557 0.2792167,-0.0996 0.066256,0.13477 0.1371054,0.28494 0.2091869,0.44437 2.01238001,4.45097 4.9962,7.82981 8.46201,8.89351 0.663,0.20348 1.5521,0.37854 2.29806,0.46974 3.7317876,-0.66833 4.7143706,-2.0663 4.7855746,-6.02461 0.0047,-0.26002 0.0054,-0.53109 0.0028,-0.81373 -0.0022,-0.23637 -0.0033,-0.45588 -0.0028,-0.65967 0.0055,-2.19687 0.191732,-2.56804 1.015102,-2.56804 0.57361,0 1.32802,-0.5312 1.67639,-1.18081 0.20037,-0.37361 0.29706,-0.67039 0.25528,-0.98753 l -0.005,-0.0439 c -0.0932,-0.54176 -0.60065,-1.15544 -1.74098,-2.32079 0,0 -1.57724,-1.31904 -2.12442,-2.17092 -1.15665,-1.80077 -2.3058,-5.9924 -2.3058,-5.9924 -0.5879,-1.31282 -1.1091096,-2.45218 -1.9357996,-3.56051 -2.03659,0.2317 -3.80872,1.32305 -4.92166,3.04529 -0.16726,0.25883 -0.32594,0.45358 -0.35244,0.43305 -0.0837,-0.0648 0.27033,-1.03121 0.52814,-1.44177 0.49018,-0.78058 0.89666,-1.2147 1.61644,-1.72703 0.7678,-0.54651 1.62861,-0.89315 2.54403,-1.03508 -0.15795,-0.1769 -0.32365,-0.35386 -0.50385,-0.53123 -0.73219,0.0944 -1.78869,0.38375 -2.60552,0.73432 -3.26392,1.40079 -5.66212999,4.85392 -6.60374,9.50795 -0.13297,0.65724 -0.28177,1.16882 -0.33124,1.13688 -0.1274221,-0.0823 0.00709,-1.63491 0.1693689,-2.76773 0.053971,-0.37676 0.1672519,-0.9838 0.2583727,-1.35329 0.39229628,-1.59073 0.9948861,-2.67775 1.74369841,-3.99786 1.51196999,-2.66552 4.23521999,-3.49786 6.82542999,-3.76463 -4.01426,-3.53174 -8.85558,-4.02715 -14.65337,-1.48467 -2.3509204,1.03094 -2.5611204,1.04133 -3.0835404,0.15813 -2.25289,-3.80866 -5.11885,-5.71756 -8.70593,-5.74125 z m -0.30334,2.23139 c 2.80292,-0.11173 5.0261,0.99595 6.196,3.25355 1.15948,2.23748 1.08182,2.63661 -0.59738,3.05718 -0.79657,0.1995 -2.48528,1.01593 -3.75274,1.81436 -1.26746,0.79842 -3.61686,2.82492 -5.22035,4.5036 l -2.036605,2.13225 c -0.48545,0.50825 -1.037072,0.37266 -1.25808,-0.29448 -0.728412,-2.19882 -1.65731,-4.3232 -2.681695,-6.40235 -1.93924,-3.8666 -2.0079,-3.74767 3.78219,-6.53139 1.99663,-0.95993 3.8869,-1.46568 5.56866,-1.53272 z m -13.113413,6.7303 c 0.550426,1.14295 1.024877,2.20165 1.528762,3.39683 0.494979,1.17406 -0.06506,2.55888 -1.23058,3.07305 -7.404719,3.26664 -11.861605,4.80917 -20.886098,6.47394 -1.646809,0.30379 -2.993572,-0.82997 -3.042213,-2.50387 -0.04393,-1.51165 -0.106243,-2.26699 -0.222886,-3.97549 -0.10442,-1.52945 1.054142,-2.93943 2.563184,-3.20934 5.690625,-1.01784 11.330585,-2.68441 16.678558,-4.90886 1.722633,-0.71651 3.801736,-0.0273 4.611273,1.65374 z m 20.874173,7.844 c 0.23876,0.0555 0.40721,0.31464 0.40721,0.68007 0,0.48724 -0.39954,0.88625 -0.8878,0.88625 -0.99014,0 -0.81743,-1.20448 0.22221,-1.5503 0.0916,-0.0305 0.17879,-0.0345 0.25838,-0.016 z m 19.7745104,1.46348 c 0.23876,0.0555 0.40772,0.31515 0.40772,0.68058 0,0.48725 -0.39954,0.88573 -0.8878,0.88573 -0.99014,0 -0.81795,-1.20446 0.2217,-1.55029 0.0916,-0.0305 0.17879,-0.0345 0.25838,-0.016 z m -36.7915604,2.34353 c 0.34259,-0.001 0.60358,0.28861 0.60358,0.80357 0,0.44343 -0.22571,0.94543 -0.50177,1.11569 -0.57719,0.35598 -1.27334,-1.08313 -0.76792,-1.5875 0.22561,-0.22513 0.46055,-0.3309 0.66611,-0.33176 z m -6.62388,5.99188 1.79162,1.71979 c 2.24193,2.15228 4.06978,2.61652 7.09931,1.80247 2.75761,-0.74098 3.08526,-0.56879 2.59829,1.36736 -0.2877,1.14387 -0.70114,1.42524 -2.09806,1.42524 -1.53335,0 -1.65154,0.10668 -0.99374,0.89762 0.41056,0.49366 1.28918,1.10335 1.95233,1.35495 0.7138,0.27081 1.34012,1.1283 1.53531,2.1022 0.23549,1.17494 1.09935,2.13984 3.02256,3.37602 2.81267,1.80791 3.93388,3.18849 4.66948,5.74797 0.36853,1.28229 0.24605,1.57726 -0.76895,1.84899 -0.66424,0.17782 -1.83871,0.29528 -2.60966,0.26096 -7.09699,-0.3159 -12.57219,-3.81821 -15.18718,-9.71413 -1.16576,-2.62838 -1.93355,-8.52231 -1.39113,-10.67894 z"
       id="path13"
       inkscape:original-d="m -19.122173,123.2785 c -2.78995,-0.0184 -6.01645,1.10376 -9.72964,3.36 -1.89582,1.15195 -2.761022,1.19994 -3.3197,1.08004 -0.590465,-0.12672 -1.2524,-0.43116 -1.87533,-0.21942 -24.878059,8.45628 -23.986571,6.13359 -24.028511,7.79932 0.174798,2.9749 -1.555838,11.17528 1.991956,11.92679 1.802948,1.04683 0.954522,4.87748 1.54943,6.7346 h -3.012219 c -1.917985,0 -3.388133,0.41928 -4.181657,1.31517 1.97174,20.31781 19.025728,35.83151 39.438941,35.87688 3.787856,-1.5e-4 7.55621,-0.54221 11.19053,-1.60972 -0.15245,-1.28829 -0.68936,-3.59419 -1.10433,-4.99246 -1.12174,-3.78005 -2.13663,-5.73127 -4.48861,-8.62893 l -1.93012,-2.37815 h 2.21175 c 2.82892,0 3.48265,-0.80303 2.959,-3.63647 -0.67016,-3.62609 -2.01308,-5.33921 -6.83008,-8.7111 -1.04168,-0.72917 -1.27006,-1.45423 -1.34927,-4.28863 -0.086,-3.07694 0.033,-3.46904 1.21388,-4.00595 1.94208,-0.88301 1.61731,-2.03932 -1.49448,-5.32268 -1.5419,-1.6269 -2.80345,-3.13943 -2.80345,-3.36103 0,-0.2216 0.6697,-1.27928 1.48828,-2.35025 l 1.48828,-1.94716 1.56373,3.24321 c 1.13188,2.34832 2.22949,3.67602 3.97805,4.80952 2.46191,1.59595 2.59936,1.60776 8.5829404,0.75241 0.30838,-0.0441 0.64036,0.61204 0.73794,1.45831 0.16781,1.45531 0.0538,1.53893 -2.1027099,1.53893 -1.2540005,0 -2.2799705,0.23732 -2.2799705,0.52761 0,0.73854 2.3041005,2.27015 3.4153004,2.27015 0.65257,0 1.0106,0.65495 1.22318,2.23655 0.41956,3.12142 3.52446,7.14022 7.11688001,9.29711 l 2.99826999,1.79989 c -1.4282725,0.57529 -2.88761541,1.10786 -4.44417999,1.156 -1.37143001,0 -1.35506001,0.0513 0.85473,2.66651 0.91237,1.07974 4.12839999,5.53146 5.29372999,8.29355 2.9073278,-2.80648 5.3692906,-6.04024 7.3008496,-9.5896 -2.7988196,-0.48533 -6.6129396,-1.95603 -8.7472696,-3.94808 -1.48094,-1.38224 -2.33208,-2.4813 -3.38635999,-4.37182 -0.55451,-0.99434 -1.35884,-3.24521 -1.19992,-3.35794 0.0504,-0.0357 0.38518,0.4494 0.74414,1.07797 2.54186999,4.45098 6.31051999,7.82982 10.68822959,8.89352 0.40347,0.098 1.60488,0.32529 2.56936,0.48317 0.237046,-0.4221 0.466355,-0.8485 0.68781,-1.27899 -1.55282,-2.33125 -5.2676696,-4.98951 -8.4082696,-6.83886 l -1.80558,-1.06298 c -0.91744,-0.24549 -1.79225,-0.73499 -2.574,-1.45056 -0.63700999,-0.58309 -1.00326999,-1.04682 -1.45675999,-1.84433 -0.23851,-0.41946 -0.65022581,-1.2242 -0.58187583,-1.27176 0.0217,-0.0151 0.23162583,0.0449 0.38602583,0.31006 0.91222,1.56657 2.24517999,2.74939 3.75531999,3.35897 l 2.45412,-0.20723 c -1.42362,-0.64066 -2.77998,-1.70031 -4.01113,-3.15174 -1.17245999,-1.38223 -1.84628999,-2.48131 -2.68097,-4.37183 -0.43899,-0.99435 -1.07562,-3.24469 -0.94981,-3.35742 0.0399,-0.0357 0.30493,0.4489 0.58911,1.07746 2.01238001,4.45097 4.9962,7.82981 8.46201,8.89351 0.663,0.20348 1.5521,0.37854 2.29806,0.46974 3.7317876,-0.66833 4.7143706,-2.0663 4.7855746,-6.02461 0.0047,-0.26002 0.0054,-0.53109 0.0028,-0.81373 -0.0022,-0.23637 -0.0033,-0.45588 -0.0028,-0.65967 0.0055,-2.19687 0.191732,-2.56804 1.015102,-2.56804 0.57361,0 1.32802,-0.5312 1.67639,-1.18081 0.20037,-0.37361 0.29706,-0.67039 0.25528,-0.98753 l -0.005,-0.0439 c -0.0932,-0.54176 -0.60065,-1.15544 -1.74098,-2.32079 0,0 -1.57724,-1.31904 -2.12442,-2.17092 -1.15665,-1.80077 -2.3058,-5.9924 -2.3058,-5.9924 -0.5879,-1.31282 -1.1091096,-2.45218 -1.9357996,-3.56051 -2.03659,0.2317 -3.80872,1.32305 -4.92166,3.04529 -0.16726,0.25883 -0.32594,0.45358 -0.35244,0.43305 -0.0837,-0.0648 0.27033,-1.03121 0.52814,-1.44177 0.49018,-0.78058 0.89666,-1.2147 1.61644,-1.72703 0.7678,-0.54651 1.62861,-0.89315 2.54403,-1.03508 -0.15795,-0.1769 -0.32365,-0.35386 -0.50385,-0.53123 -0.73219,0.0944 -1.78869,0.38375 -2.60552,0.73432 -3.26392,1.40079 -5.66212999,4.85392 -6.60374,9.50795 -0.13297,0.65724 -0.28177,1.16882 -0.33124,1.13688 -0.15613,-0.10079 0.081,-2.40916 0.2806,-3.44785 0.3795,-1.97482 1.04100001,-3.17282 1.89084001,-4.67103 1.51196999,-2.66552 4.23521999,-3.49786 6.82542999,-3.76463 -4.01426,-3.53174 -8.85558,-4.02715 -14.65337,-1.48467 -2.3509204,1.03094 -2.5611204,1.04133 -3.0835404,0.15813 -2.25289,-3.80866 -5.11885,-5.71756 -8.70593,-5.74125 z m -0.30334,2.23139 c 2.80292,-0.11173 5.0261,0.99595 6.196,3.25355 1.15948,2.23748 1.08182,2.63661 -0.59738,3.05718 -0.79657,0.1995 -2.48528,1.01593 -3.75274,1.81436 -1.26746,0.79842 -3.61686,2.82492 -5.22035,4.5036 l -2.91559,3.05252 c -0.770743,-2.63457 -1.848951,-5.15748 -3.06079,-7.6171 -1.93924,-3.8666 -2.0079,-3.74767 3.78219,-6.53139 1.99663,-0.95993 3.8869,-1.46568 5.56866,-1.53272 z m -14.63374,3.71347 c 1.737599,3.33457 2.589989,5.22879 3.92535,8.5478 -9.572213,4.30067 -13.949094,5.89539 -25.97878,7.9406 -0.06615,-5.15225 -0.134132,-4.40145 -0.45682,-9.77719 7.725604,-1.09422 15.429237,-3.40668 22.51025,-6.71121 z m 22.3945,10.86083 c 0.23876,0.0555 0.40721,0.31464 0.40721,0.68007 0,0.48724 -0.39954,0.88625 -0.8878,0.88625 -0.99014,0 -0.81743,-1.20448 0.22221,-1.5503 0.0916,-0.0305 0.17879,-0.0345 0.25838,-0.016 z m 19.7745104,1.46348 c 0.23876,0.0555 0.40772,0.31515 0.40772,0.68058 0,0.48725 -0.39954,0.88573 -0.8878,0.88573 -0.99014,0 -0.81795,-1.20446 0.2217,-1.55029 0.0916,-0.0305 0.17879,-0.0345 0.25838,-0.016 z m -36.7915604,2.34353 c 0.34259,-0.001 0.60358,0.28861 0.60358,0.80357 0,0.44343 -0.22571,0.94543 -0.50177,1.11569 -0.57719,0.35598 -1.27334,-1.08313 -0.76792,-1.5875 0.22561,-0.22513 0.46055,-0.3309 0.66611,-0.33176 z m -6.62388,5.99188 1.79162,1.71979 c 2.24193,2.15228 4.06978,2.61652 7.09931,1.80247 2.75761,-0.74098 3.08526,-0.56879 2.59829,1.36736 -0.2877,1.14387 -0.70114,1.42524 -2.09806,1.42524 -1.53335,0 -1.65154,0.10668 -0.99374,0.89762 0.41056,0.49366 1.28918,1.10335 1.95233,1.35495 0.7138,0.27081 1.34012,1.1283 1.53531,2.1022 0.23549,1.17494 1.09935,2.13984 3.02256,3.37602 2.81267,1.80791 3.93388,3.18849 4.66948,5.74797 0.36853,1.28229 0.24605,1.57726 -0.76895,1.84899 -0.66424,0.17782 -1.83871,0.29528 -2.60966,0.26096 -7.09699,-0.3159 -12.57219,-3.81821 -15.18718,-9.71413 -1.16576,-2.62838 -1.93355,-8.52231 -1.39113,-10.67894 z"
       inkscape:path-effect="#path-effect1"
       sodipodi:nodetypes="csscsccsccccccscscssssccccssssccccscccscccccccssscccscccsccccssccccccsccscccsssscscccsssscccssccccccssccccssccccssccccssssssssscscc" /><path
       style="fill:#000000"
       d="m 14.979158,144.93996 c 0.65909,0.90476 1.23641,1.73532 1.28294,1.8457 0.0465,0.11038 0.0846,0.33666 0.0846,0.50286 0,0.24911 -0.0315,0.34172 -0.17954,0.52735 -0.24027,0.30131 -0.50656,0.42313 -1.1296,0.51674 -0.82324,0.1237 -1.00531,0.26155 -1.00531,0.76114 0,0.34076 0.094,0.56433 0.42776,1.01776 0.14637,0.19883 0.28356,0.4409 0.30488,0.53793 0.0557,0.25346 -0.16139,0.67142 -0.44677,0.86027 -0.125,0.0827 -0.22682,0.16668 -0.22627,0.18657 5.6e-4,0.0199 0.0682,0.0999 0.15031,0.17782 0.19178,0.18198 0.37603,0.5435 0.37603,0.73782 0,0.17937 -0.13472,0.45808 -0.33957,0.70255 -0.39236,0.46822 -1.240622,1.65504 -2.136399,1.75713 -8.9532425,1.02042 0.190809,-0.37077 0.190809,-4.28345"
       id="path33"
       sodipodi:nodetypes="ccscsssssssscsc" /></g><metadata
     id="metadata1"><rdf:RDF><cc:Work
         rdf:about=""><cc:license
           rdf:resource="http://creativecommons.org/licenses/by-nc-sa/4.0/" /></cc:Work><cc:License
         rdf:about="http://creativecommons.org/licenses/by-nc-sa/4.0/"><cc:permits
           rdf:resource="http://creativecommons.org/ns#Reproduction" /><cc:permits
           rdf:resource="http://creativecommons.org/ns#Distribution" /><cc:requires
           rdf:resource="http://creativecommons.org/ns#Notice" /><cc:requires
           rdf:resource="http://creativecommons.org/ns#Attribution" /><cc:prohibits
           rdf:resource="http://creativecommons.org/ns#CommercialUse" /><cc:permits
           rdf:resource="http://creativecommons.org/ns#DerivativeWorks" /><cc:requires
           rdf:resource="http://creativecommons.org/ns#ShareAlike" /></cc:License></rdf:RDF></metadata></svg>
