<?xml version="1.0" encoding="UTF-8" standalone="no"?>
<!-- Created with Inkscape (http://www.inkscape.org/) -->

<svg
   width="297.83896"
   height="256.53015"
   viewBox="0 0 78.803226 67.873604"
   version="1.1"
   id="svg1"
   inkscape:version="1.3.2 (091e20e, 2023-11-25, custom)"
   sodipodi:docname="wisdom_weyn_logo_4.svg"
   xml:space="preserve"
   inkscape:export-filename="wisdom_weyn_logo_4.png"
   inkscape:export-xdpi="20.927999"
   inkscape:export-ydpi="20.927999"
   xmlns:inkscape="http://www.inkscape.org/namespaces/inkscape"
   xmlns:sodipodi="http://sodipodi.sourceforge.net/DTD/sodipodi-0.dtd"
   xmlns="http://www.w3.org/2000/svg"
   xmlns:svg="http://www.w3.org/2000/svg"
   xmlns:rdf="http://www.w3.org/1999/02/22-rdf-syntax-ns#"
   xmlns:cc="http://creativecommons.org/ns#"><sodipodi:namedview
     id="namedview1"
     pagecolor="#ffffff"
     bordercolor="#000000"
     borderopacity="0.25"
     inkscape:showpageshadow="2"
     inkscape:pageopacity="0.0"
     inkscape:pagecheckerboard="0"
     inkscape:deskcolor="#d1d1d1"
     inkscape:document-units="mm"
     inkscape:lockguides="true"
     showguides="true"
     showgrid="true"
     inkscape:zoom="1.4142136"
     inkscape:cx="103.23759"
     inkscape:cy="211.77848"
     inkscape:window-width="2560"
     inkscape:window-height="1377"
     inkscape:window-x="-8"
     inkscape:window-y="-8"
     inkscape:window-maximized="1"
     inkscape:current-layer="layer1"
     inkscape:export-bgcolor="#ffffff00"><inkscape:grid
       id="grid4"
       units="mm"
       originx="61.727851"
       originy="-123.27828"
       spacingx="1"
       spacingy="1"
       empcolor="#0099e5"
       empopacity="0.30196078"
       color="#0099e5"
       opacity="0.14901961"
       empspacing="7"
       dotted="false"
       gridanglex="30"
       gridanglez="30"
       visible="true"
       enabled="false" /><sodipodi:guide
       position="0,132.29167"
       orientation="0,500"
       inkscape:locked="true"
       id="guide2" /><sodipodi:guide
       position="132.29167,132.29167"
       orientation="500,0"
       inkscape:locked="true"
       id="guide3" /><sodipodi:guide
       position="132.29167,0"
       orientation="0,-500"
       inkscape:locked="true"
       id="guide4" /><sodipodi:guide
       position="0,0"
       orientation="-500,0"
       inkscape:locked="true"
       id="guide5" /><inkscape:grid
       id="grid5"
       units="mm"
       originx="87.659694"
       originy="-94.735369"
       spacingx="1"
       spacingy="1"
       empcolor="#0099e5"
       empopacity="0.30196078"
       color="#0099e5"
       opacity="0.14901961"
       empspacing="5"
       dotted="false"
       gridanglex="30"
       gridanglez="30"
       visible="true" /></sodipodi:namedview><defs
     id="defs1"><linearGradient
       id="swatch64"
       inkscape:swatch="solid"><stop
         style="stop-color:#5a1616;stop-opacity:1;"
         offset="0"
         id="stop64" /></linearGradient><linearGradient
       id="swatch114"
       inkscape:swatch="solid"><stop
         style="stop-color:#c1c4b2;stop-opacity:1;"
         offset="0"
         id="stop114" /></linearGradient></defs><g
     inkscape:label="Layer 1"
     inkscape:groupmode="layer"
     id="layer1"
     transform="translate(61.727846,-123.27828)"
     style="display:inline"><path
       id="path13"
       style="fill:#000000;fill-opacity:1;stroke-width:0.192998"
       d="m -19.122173,123.2785 c -2.78995,-0.0184 -6.01645,1.10376 -9.72964,3.36 -1.89582,1.15195 -2.91524,1.48366 -3.3197,1.08004 -0.38045,-0.37964 -2.99084,-0.46095 -7.4967,-0.23306 -6.879535,0.34794 -6.912752,0.34377 -6.912752,-0.89659 0,-0.88677 -0.283245,-1.19158 -0.981335,-1.05575 -0.607192,0.11814 -0.985921,0.70732 -0.993221,1.54565 -0.0092,1.05121 -1.076694,2.12398 -4.765601,4.7873 l -4.754232,3.43235 -0.158646,6.30091 c -0.145172,5.75349 -0.06858,6.32446 0.886767,6.57376 0.661745,0.17269 1.371326,1.28607 1.930115,3.02979 l 0.88315,2.75693 h -3.012219 c -1.917985,0 -3.388133,0.41928 -4.181657,1.31517 a 39.712891,39.712891 0 0 0 39.438941,35.87688 39.712891,39.712891 0 0 0 11.19053,-1.60972 c -0.15245,-1.28829 -0.68936,-3.59419 -1.10433,-4.99246 -1.12174,-3.78005 -2.13663,-5.73127 -4.48861,-8.62893 l -1.93012,-2.37815 h 2.21175 c 2.82892,0 3.48265,-0.80303 2.959,-3.63647 -0.67016,-3.62609 -2.01308,-5.33921 -6.83008,-8.7111 -1.04168,-0.72917 -1.27006,-1.45423 -1.34927,-4.28863 -0.086,-3.07694 0.033,-3.46904 1.21388,-4.00595 1.94208,-0.88301 1.61731,-2.03932 -1.49448,-5.32268 -1.5419,-1.6269 -2.80345,-3.13943 -2.80345,-3.36103 0,-0.2216 0.6697,-1.27928 1.48828,-2.35025 l 1.48828,-1.94716 1.56373,3.24321 c 1.13188,2.34832 2.22949,3.67602 3.97805,4.80952 2.46191,1.59595 2.59936,1.60776 8.5829404,0.75241 0.30838,-0.0441 0.64036,0.61204 0.73794,1.45831 0.16781,1.45531 0.0538,1.53893 -2.1027099,1.53893 -1.2540005,0 -2.2799705,0.23732 -2.2799705,0.52761 0,0.73854 2.3041005,2.27015 3.4153004,2.27015 0.65257,0 1.0106,0.65495 1.22318,2.23655 0.41956,3.12142 3.52446,7.14022 7.11688001,9.29711 l 2.99826999,1.79989 -1.52291,0.57774 c -0.83761,0.31779 -2.15203999,0.57826 -2.92126999,0.57826 -1.37143001,0 -1.35506001,0.0513 0.85473,2.66651 0.91237,1.07974 4.12839999,5.53146 5.29372999,8.29355 a 39.712891,39.712891 0 0 0 7.3008496,-9.5896 c -2.7988196,-0.48533 -6.6129396,-1.95603 -8.7472696,-3.94808 -1.48094,-1.38224 -2.33208,-2.4813 -3.38635999,-4.37182 -0.55451,-0.99434 -1.35884,-3.24521 -1.19992,-3.35794 0.0504,-0.0357 0.38518,0.4494 0.74414,1.07797 2.54186999,4.45098 6.31051999,7.82982 10.68822959,8.89352 0.40347,0.098 1.60488,0.32529 2.56936,0.48317 a 39.712891,39.712891 0 0 0 0.68781,-1.27899 c -1.55282,-2.33125 -5.2676696,-4.98951 -8.4082696,-6.83886 l -1.80558,-1.06298 c -0.91744,-0.24549 -1.79225,-0.73499 -2.574,-1.45056 -0.63700999,-0.58309 -1.00326999,-1.04682 -1.45675999,-1.84433 -0.23851,-0.41946 -0.58408,-1.36889 -0.51573,-1.41645 0.0217,-0.0151 0.16548,0.1896 0.31988,0.45475 0.91222,1.56657 2.24517999,2.74939 3.75531999,3.35897 l 2.45412,-0.20723 c -1.42362,-0.64066 -2.77998,-1.70031 -4.01113,-3.15174 -1.17245999,-1.38223 -1.84628999,-2.48131 -2.68097,-4.37183 -0.43899,-0.99435 -1.07562,-3.24469 -0.94981,-3.35742 0.0399,-0.0357 0.30493,0.4489 0.58911,1.07746 2.01238001,4.45097 4.9962,7.82981 8.46201,8.89351 0.663,0.20348 1.5521,0.37854 2.29806,0.46974 3.9769296,-0.71223 4.8315996,-2.25311 4.7883296,-6.83834 -0.0263,-2.78448 0.11259,-3.22771 1.01234,-3.22771 0.57361,0 1.32802,-0.5312 1.67639,-1.18081 0.20037,-0.37361 0.29706,-0.67039 0.25528,-0.98753 a 39.712891,39.712891 0 0 0 -0.005,-0.0439 c -0.0932,-0.54176 -0.60065,-1.15544 -1.74098,-2.32079 0,0 -1.57724,-1.31904 -2.12442,-2.17092 -1.15665,-1.80077 -2.3058,-5.9924 -2.3058,-5.9924 -0.5879,-1.31282 -1.1091096,-2.45218 -1.9357996,-3.56051 -2.03659,0.2317 -3.80872,1.32305 -4.92166,3.04529 -0.16726,0.25883 -0.32594,0.45358 -0.35244,0.43305 -0.0837,-0.0648 0.27033,-1.03121 0.52814,-1.44177 0.49018,-0.78058 0.89666,-1.2147 1.61644,-1.72703 0.7678,-0.54651 1.62861,-0.89315 2.54403,-1.03508 -0.15795,-0.1769 -0.32365,-0.35386 -0.50385,-0.53123 -0.73219,0.0944 -1.78869,0.38375 -2.60552,0.73432 -3.26392,1.40079 -5.66212999,4.85392 -6.60374,9.50795 -0.13297,0.65724 -0.28177,1.16882 -0.33124,1.13688 -0.15613,-0.10079 0.081,-2.40916 0.2806,-3.44785 0.3795,-1.97482 1.04100001,-3.17282 1.89084001,-4.67103 1.51196999,-2.66552 4.23521999,-3.49786 6.82542999,-3.76463 -4.01426,-3.53174 -8.85558,-4.02715 -14.65337,-1.48467 -2.3509204,1.03094 -2.5611204,1.04133 -3.0835404,0.15813 -2.25289,-3.80866 -5.11885,-5.71756 -8.70593,-5.74125 z m -0.30334,2.23139 c 2.80292,-0.11173 5.0261,0.99595 6.196,3.25355 1.15948,2.23748 1.08182,2.63661 -0.59738,3.05718 -0.79657,0.1995 -2.48528,1.01593 -3.75274,1.81436 -1.26746,0.79842 -3.61686,2.82492 -5.22035,4.5036 l -2.91559,3.05252 -0.69763,-2.14819 c -0.38377,-1.18152 -1.44721,-3.6426 -2.36316,-5.46891 -1.93924,-3.8666 -2.0079,-3.74767 3.78219,-6.53139 1.99663,-0.95993 3.8869,-1.46568 5.56866,-1.53272 z m -14.63374,3.71347 0.99736,1.31775 c 1.86199,2.46075 3.54434,6.615 2.92799,7.23005 -1.04126,1.03908 -11.038105,5.0925 -15.151017,6.14329 -2.216844,0.56636 -5.560332,1.20232 -7.429521,1.41335 l -3.398242,0.38396 v -1.95285 c 0,-1.07386 -0.154856,-3.07986 -0.344165,-4.45813 l -0.344165,-2.50631 3.567741,-0.7369 c 4.197704,-0.86704 13.797609,-4.09712 16.958139,-5.70612 z m -9.718265,0.73174 3.083535,0.0233 -3.364138,1.29191 c -1.850282,0.71057 -4.24696,1.47401 -5.32629,1.69654 l -1.962671,0.40463 2.242757,-1.7198 c 1.892937,-1.45167 2.724016,-1.71629 5.326807,-1.69653 z m 32.112765,10.12909 c 0.23876,0.0555 0.40721,0.31464 0.40721,0.68007 0,0.48724 -0.39954,0.88625 -0.8878,0.88625 -0.99014,0 -0.81743,-1.20448 0.22221,-1.5503 0.0916,-0.0305 0.17879,-0.0345 0.25838,-0.016 z m 19.7745104,1.46348 c 0.23876,0.0555 0.40772,0.31515 0.40772,0.68058 0,0.48725 -0.39954,0.88573 -0.8878,0.88573 -0.99014,0 -0.81795,-1.20446 0.2217,-1.55029 0.0916,-0.0305 0.17879,-0.0345 0.25838,-0.016 z m -36.7915604,2.34353 c 0.34259,-0.001 0.60358,0.28861 0.60358,0.80357 0,0.44343 -0.22571,0.94543 -0.50177,1.11569 -0.57719,0.35598 -1.27334,-1.08313 -0.76792,-1.5875 0.22561,-0.22513 0.46055,-0.3309 0.66611,-0.33176 z m -6.62388,5.99188 1.79162,1.71979 c 2.24193,2.15228 4.06978,2.61652 7.09931,1.80247 2.75761,-0.74098 3.08526,-0.56879 2.59829,1.36736 -0.2877,1.14387 -0.70114,1.42524 -2.09806,1.42524 -1.53335,0 -1.65154,0.10668 -0.99374,0.89762 0.41056,0.49366 1.28918,1.10335 1.95233,1.35495 0.7138,0.27081 1.34012,1.1283 1.53531,2.1022 0.23549,1.17494 1.09935,2.13984 3.02256,3.37602 2.81267,1.80791 3.93388,3.18849 4.66948,5.74797 0.36853,1.28229 0.24605,1.57726 -0.76895,1.84899 -0.66424,0.17782 -1.83871,0.29528 -2.60966,0.26096 -7.09699,-0.3159 -12.57219,-3.81821 -15.18718,-9.71413 -1.16576,-2.62838 -1.93355,-8.52231 -1.39113,-10.67894 z"
       inkscape:export-filename="WIsdom_refreshed.svg"
       inkscape:export-xdpi="20.927999"
       inkscape:export-ydpi="20.927999" /></g><metadata
     id="metadata1"><rdf:RDF><cc:Work
         rdf:about=""><cc:license
           rdf:resource="http://creativecommons.org/licenses/by-nc-sa/4.0/" /></cc:Work><cc:License
         rdf:about="http://creativecommons.org/licenses/by-nc-sa/4.0/"><cc:permits
           rdf:resource="http://creativecommons.org/ns#Reproduction" /><cc:permits
           rdf:resource="http://creativecommons.org/ns#Distribution" /><cc:requires
           rdf:resource="http://creativecommons.org/ns#Notice" /><cc:requires
           rdf:resource="http://creativecommons.org/ns#Attribution" /><cc:prohibits
           rdf:resource="http://creativecommons.org/ns#CommercialUse" /><cc:permits
           rdf:resource="http://creativecommons.org/ns#DerivativeWorks" /><cc:requires
           rdf:resource="http://creativecommons.org/ns#ShareAlike" /></cc:License></rdf:RDF></metadata></svg>
