<?xml version="1.0" encoding="UTF-8" standalone="no"?>
<!-- Created with Inkscape (http://www.inkscape.org/) -->

<svg
   width="297.75424"
   height="247.45554"
   viewBox="0 0 78.780812 65.472612"
   version="1.1"
   id="svg1"
   inkscape:version="1.3.2 (091e20e, 2023-11-25, custom)"
   sodipodi:docname="wisdom_weyn_logo.svg"
   xml:space="preserve"
   inkscape:export-filename="icon_template.svg"
   inkscape:export-xdpi="20.927999"
   inkscape:export-ydpi="20.927999"
   xmlns:inkscape="http://www.inkscape.org/namespaces/inkscape"
   xmlns:sodipodi="http://sodipodi.sourceforge.net/DTD/sodipodi-0.dtd"
   xmlns="http://www.w3.org/2000/svg"
   xmlns:svg="http://www.w3.org/2000/svg"><sodipodi:namedview
     id="namedview1"
     pagecolor="#ffffff"
     bordercolor="#000000"
     borderopacity="0.25"
     inkscape:showpageshadow="2"
     inkscape:pageopacity="0.0"
     inkscape:pagecheckerboard="0"
     inkscape:deskcolor="#d1d1d1"
     inkscape:document-units="mm"
     inkscape:lockguides="true"
     showguides="true"
     showgrid="true"
     inkscape:zoom="1.4142136"
     inkscape:cx="103.23759"
     inkscape:cy="211.77848"
     inkscape:window-width="2560"
     inkscape:window-height="1377"
     inkscape:window-x="-8"
     inkscape:window-y="-8"
     inkscape:window-maximized="1"
     inkscape:current-layer="layer1"><sodipodi:guide
       position="0,132.29167"
       orientation="0,500"
       id="guide1"
       inkscape:locked="true" /><sodipodi:guide
       position="132.29167,132.29167"
       orientation="500,0"
       id="guide2"
       inkscape:locked="true" /><sodipodi:guide
       position="132.29167,0"
       orientation="0,-500"
       id="guide3"
       inkscape:locked="true" /><sodipodi:guide
       position="0,0"
       orientation="-500,0"
       id="guide4"
       inkscape:locked="true" /><inkscape:grid
       id="grid4"
       units="mm"
       originx="-25.931847"
       originy="-28.54291"
       spacingx="1"
       spacingy="1"
       empcolor="#0099e5"
       empopacity="0.30196078"
       color="#0099e5"
       opacity="0.14901961"
       empspacing="7"
       dotted="false"
       gridanglex="30"
       gridanglez="30"
       visible="true"
       enabled="false" /></sodipodi:namedview><defs
     id="defs1"><linearGradient
       id="swatch114"
       inkscape:swatch="solid"><stop
         style="stop-color:#c1c4b2;stop-opacity:1;"
         offset="0"
         id="stop114" /></linearGradient></defs><g
     inkscape:label="Layer 1"
     inkscape:groupmode="layer"
     id="layer1"
     transform="translate(-25.931846,-28.542909)"><path
       style="fill:#000000;fill-opacity:1;stroke:#ffffff;stroke-width:0.4;stroke-linecap:round;stroke-linejoin:bevel;stroke-dasharray:none;stroke-dashoffset:0;stroke-opacity:0;paint-order:markers stroke fill"
       d="M 61.272135,93.562622 C 53.37686,92.453702 44.493386,88.371662 38.738114,83.208043 33.236885,78.272346 28.200082,70.421252 26.61215,64.306748 25.550424,60.218456 26.083811,59.424695 29.89276,59.424695 h 3.012536 l -0.883459,-2.756846 c -0.558793,-1.743723 -1.267939,-2.857178 -1.929685,-3.029865 -0.955347,-0.249305 -1.032418,-0.820342 -0.887246,-6.573866 l 0.158982,-6.300846 4.754042,-3.432329 c 3.688926,-2.663336 4.756697,-3.735851 4.765892,-4.787069 0.0073,-0.838338 0.38587,-1.427511 0.993063,-1.545649 0.698095,-0.135824 0.981213,0.168728 0.981213,1.055496 0,1.240372 0.03346,1.244712 6.913031,0.89677 4.505886,-0.22789 7.116276,-0.146815 7.496727,0.232837 0.404466,0.403617 1.42379,0.072 3.31962,-1.079957 8.487346,-5.157161 14.430176,-4.38944 18.435333,2.381559 0.522428,0.883202 0.732885,0.872381 3.083813,-0.158563 5.920221,-2.596172 10.845148,-2.033108 14.908479,1.704476 1.765458,1.623927 2.451787,3.178094 3.31334,5.101978 2.060949,4.602176 2.670379,7.992429 2.076559,4.732152 l 0.22958,1.26048 2.12431,2.170912 c 1.84301,1.883448 2.04042,2.327313 1.49085,3.35204 -0.3484,0.64962 -1.10276,1.181128 -1.67637,1.181128 -0.89976,0 -1.03875,0.443058 -1.01246,3.22755 0.0523,5.542251 -1.13323,6.657347 -7.663582,7.208205 l -4.207289,0.354899 3.198169,1.883245 c 3.499992,2.060972 6.810809,4.416886 7.890702,7.018494 0.67579,1.628059 1.05807,3.01696 -3.386662,7.553291 l -4.555299,4.647371 -1.578128,-2.817645 c -0.931471,-1.663081 -2.67967,-4.239466 -3.919136,-5.706314 -2.209796,-2.615186 -2.226406,-2.666997 -0.854968,-2.666997 0.769234,0 2.083929,-0.260012 2.921544,-0.577804 l 1.522936,-0.577804 -2.998232,-1.80014 c -3.592434,-2.156899 -6.691131,-6.233669 -7.110684,-9.3551 -0.212585,-1.581614 -0.570852,-2.236573 -1.223421,-2.236573 -1.111207,0 -3.415091,-1.531243 -3.415091,-2.269792 0,-0.290284 1.026007,-0.527789 2.280016,-0.527789 2.156504,0 2.270404,-0.08335 2.102599,-1.53867 -0.09758,-0.846268 -0.429728,-1.502601 -0.738109,-1.458518 -5.983602,0.855358 -6.120791,0.843328 -8.582715,-0.752624 -1.748571,-1.133519 -2.846538,-2.460726 -3.978418,-4.809054 l -1.563328,-3.243463 -1.488341,1.947219 c -0.818587,1.070971 -1.48834,2.128527 -1.48834,2.350126 0,0.221599 1.261559,1.73402 2.803466,3.360936 3.111814,3.283378 3.436467,4.439745 1.494379,5.322763 -1.180871,0.536911 -1.299751,0.929294 -1.213769,4.00625 0.07921,2.834415 0.307236,3.559384 1.348924,4.288563 4.817017,3.371902 6.159983,5.084642 6.830128,8.710748 0.523655,2.833459 -0.129983,3.636855 -2.958922,3.636855 h -2.211658 l 1.930143,2.377942 c 2.352002,2.89768 3.367118,4.84908 4.488865,8.629149 0.733202,2.47075 0.743323,2.93835 0.06919,3.1965 -1.551131,0.59397 -10.679049,0.82245 -14.033741,0.35127 z m 9.669367,-16.57201 c 1.015009,-0.271734 1.13774,-0.56676 0.76921,-1.849054 -0.735599,-2.5595 -1.857008,-3.939786 -4.669699,-5.747702 -1.923215,-1.236186 -2.787014,-2.200997 -3.022498,-3.375947 -0.195191,-0.973904 -0.821655,-1.831747 -1.535457,-2.102564 -0.663159,-0.251604 -1.541659,-0.861364 -1.952222,-1.355023 -0.657808,-0.790947 -0.539787,-0.897563 0.993574,-0.897563 1.396928,0 1.810718,-0.280967 2.098417,-1.424847 0.486967,-1.936155 0.15915,-2.108701 -2.598471,-1.36771 -3.029543,0.814059 -4.857406,0.350035 -7.099345,-1.802249 l -1.791456,-1.719816 -0.379949,1.51066 c -0.542422,2.156641 0.225364,8.050496 1.391124,10.678882 2.615013,5.895949 8.090312,9.397965 15.187335,9.713861 0.770953,0.03432 1.9452,-0.0831 2.609437,-0.260928 z M 59.360974,50.159656 c 0,-0.823937 -0.668015,-1.072167 -1.269652,-0.471793 -0.505428,0.504367 0.190524,1.943584 0.767711,1.587612 0.276067,-0.170261 0.501941,-0.672379 0.501941,-1.115819 z M 42.154038,49.379342 c 4.112931,-1.050786 14.109737,-5.104178 15.151003,-6.143259 0.61635,-0.615056 -1.066028,-4.769275 -2.928027,-7.230046 l -0.99712,-1.317767 -2.215723,1.128005 C 48.003625,37.42528 38.403824,40.655597 34.2061,41.522637 l -3.568185,0.737008 0.344199,2.505939 c 0.18931,1.378267 0.3442,3.384557 0.3442,4.458424 v 1.952485 l 3.398539,-0.383694 c 1.869196,-0.211031 5.21233,-0.847087 7.429185,-1.413457 z m 34.027731,-3.149904 c 0,-0.487246 -0.29962,-0.786237 -0.665823,-0.664426 -1.03965,0.345823 -1.212084,1.550326 -0.221941,1.550326 0.48827,0 0.887764,-0.398655 0.887764,-0.8859 z m -6.32251,-7.129515 c 1.267468,-0.798438 2.95623,-1.614939 3.752805,-1.814447 1.679201,-0.420567 1.75727,-0.819842 0.597788,-3.057325 -1.871859,-3.612177 -6.440697,-4.280316 -11.765066,-1.720502 -5.790124,2.783737 -5.72115,2.664621 -3.781908,6.531235 0.915959,1.826312 1.979381,4.287275 2.363161,5.468807 l 0.697781,2.14824 2.915477,-3.052152 c 1.603512,-1.678684 3.952495,-3.705419 5.219962,-4.503856 z m -26.478041,-2.364517 3.364159,-1.291947 -3.083813,-0.02341 c -2.602802,-0.01976 -3.433638,0.244865 -5.326585,1.696554 l -2.242773,1.719968 1.962426,-0.404607 c 1.079335,-0.222533 3.476298,-0.985982 5.326586,-1.696553 z m 52.575194,10.95782 c 0,-0.487246 -0.29962,-0.786237 -0.665823,-0.664426 -1.03965,0.345823 -1.212084,1.550326 -0.221941,1.550326 0.48827,0 0.887764,-0.398655 0.887764,-0.8859 z"
       id="path1"
       sodipodi:nodetypes="sssscssscscsssscssssscssscscssscsssscssssssssscsssssssscssssssssssssssscssssssssssscsccsscsssssssssssscssccsscssc"
       inkscape:highlight-color="#3bee68" /><path
       d="m 93.287879,65.026107 c -0.315681,0.04694 -1.139048,-0.04167 -1.758219,-0.189212 -1.883033,-0.44872 -3.580314,-1.775324 -4.673673,-3.652959 -0.154401,-0.265156 -0.298449,-0.469774 -0.320105,-0.454706 -0.06835,0.04756 0.2776,0.997012 0.516113,1.416472 0.45349,0.797513 0.819641,1.261065 1.456654,1.844156 1.171951,1.072743 2.551925,1.640083 3.973379,1.633545 0.231372,-0.0011 0.417695,0.0076 0.414041,0.01933"
       style="fill:#ffffff;stroke-width:0.999996"
       id="path1-4-3-7" /><path
       d="m 97.850732,63.640328 c -0.581019,0.111281 -2.236797,0.135091 -3.376416,-0.214674 -3.465829,-1.063705 -6.449456,-4.442326 -8.461846,-8.893322 -0.284185,-0.628564 -0.549312,-1.113617 -0.589172,-1.077897 -0.125812,0.112733 0.510939,2.363449 0.949937,3.357796 0.834674,1.890529 1.508595,2.989397 2.681055,4.371632 2.157042,2.542974 4.696964,3.887872 7.313231,3.872376 0.425855,-0.0025 0.768785,0.0181 0.762064,0.04582"
       style="fill:#ffffff;stroke-width:1"
       id="path1-4-3"
       sodipodi:nodetypes="cssssssc" /><path
       d="m 98.857616,37.668752 c -0.37622,-0.111368 -1.345258,-0.172407 -2.069261,-0.130304 -2.20185,0.128045 -4.132876,1.246262 -5.317315,3.079137 -0.167265,0.258833 -0.325798,0.453816 -0.352297,0.43329 -0.08365,-0.06479 0.270468,-1.031154 0.528279,-1.441711 0.490178,-0.780586 0.896441,-1.214696 1.616228,-1.727027 1.324232,-0.942562 2.923982,-1.295755 4.606179,-1.016953 0.273816,0.04538 0.493758,0.07154 0.488757,0.05813"
       style="fill:#ffffff;stroke-width:0.999995"
       id="path1-4-8"
       inkscape:transform-center-x="0.066121176"
       inkscape:transform-center-y="-0.38162823" /><path
       d="m 95.881236,36.287831 c -0.619211,-0.05532 -2.109837,0.301635 -3.183069,0.76224 -3.263931,1.400795 -5.662132,4.853569 -6.60375,9.507614 -0.132972,0.657238 -0.282238,1.168849 -0.331703,1.136914 -0.156132,-0.100789 0.08111,-2.40909 0.280702,-3.447777 0.379507,-1.974832 1.041013,-3.172604 1.890856,-4.670827 1.563501,-2.756362 4.422868,-3.554248 7.090318,-3.79165 0.434185,-0.03865 -0.227413,-0.864201 -0.241152,-0.891324"
       style="fill:#ffffff;stroke-width:1"
       id="path1-4"
       sodipodi:nodetypes="cssscssc" /><path
       d="m 101.93626,71.897717 c -0.83208,0.122892 -3.002351,-0.109077 -4.634396,-0.49534 -4.963383,-1.174703 -9.437156,-4.647618 -12.319088,-9.563076 -0.406985,-0.694155 -0.78667,-1.229823 -0.843753,-1.190375 -0.180168,0.124496 1.105891,2.51653 1.734579,3.614637 1.195335,2.087806 2.394316,3.207796 4.073382,4.734268 3.089076,2.808332 6.118447,4.480659 9.865178,4.463546 0.609868,-0.0027 1.100978,0.01999 1.091348,0.05061"
       style="fill:#ffffff;stroke-width:1"
       id="path1-4-3-6"
       sodipodi:nodetypes="cssscscc" /></g></svg>
