<?xml version="1.0" encoding="utf-8" ?>
<svg xmlns="http://www.w3.org/2000/svg" xmlns:xlink="http://www.w3.org/1999/xlink" width="488" height="194">
	<path d="M403.274 40.6481C403.18 40.0851 403.483 38.9982 403.568 38.4053C404.075 34.8649 404.908 31.3605 405.629 27.8606L407.091 20.1771C407.26 20.6146 407.396 21.1101 407.713 21.4626L405.174 40.342C404.927 42.5441 404.939 44.7828 404.784 46.9942C404.731 47.7523 404.783 48.8821 404.531 49.5771C404.313 48.6458 404.682 47.7498 404.001 46.935C404.017 45.8156 403.875 44.8919 403.68 43.875C403.452 42.6852 403.839 41.8911 403.274 40.6481Z"/>
	<path d="M234.997 98.7224L234.517 98.467L234.5 3.63326L234.959 3.27835C235.345 8.33779 235.004 13.4605 235.041 18.5432L234.97 59.3898L235.081 79.6609C235.116 82.215 235.759 97.4237 234.997 98.7224Z"/>
	<path fill="#010000" fill-opacity="0.95294118" d="M307.041 190.721L306.282 190.677C305.601 189.615 305.99 182.332 305.989 180.559L305.949 163.906C305.925 159.287 305.832 154.607 306.239 150.003L307.039 156.124C307.586 160.501 307.944 164.698 308.888 169.024L310.369 175.064C310.134 175.57 309.832 176.077 309.819 176.644L309.377 176.5C309.123 175.639 309.059 174.75 308.875 173.873C308.417 173.701 308.365 173.412 308.146 173C308.158 172.523 308.321 170.998 308.125 170.623C307.675 169.761 307.541 169.496 307.375 168.49C306.749 171.021 307.144 174.032 307.137 176.625L307.041 190.721ZM307.039 156.124C306.992 156.799 307.06 158.058 306.73 158.625C306.46 159.088 306.475 163.968 306.67 164.555C306.888 165.209 306.874 165.75 306.875 166.435L307.25 166.25L307.375 165.627C307.507 166.45 307.475 167.294 307.476 168.125C307.649 168.18 307.8 168.187 307.877 168.375L308.001 168.999L308.888 169.024C307.944 164.698 307.586 160.501 307.039 156.124Z"/>
	<path d="M307.039 156.124C307.586 160.501 307.944 164.698 308.888 169.024L308.001 168.999L307.877 168.375C307.8 168.187 307.649 168.18 307.476 168.125C307.475 167.294 307.507 166.45 307.375 165.627L307.25 166.25L306.875 166.435C306.874 165.75 306.888 165.209 306.67 164.555C306.475 163.968 306.46 159.088 306.73 158.625C307.06 158.058 306.992 156.799 307.039 156.124Z"/>
	<path d="M444.454 31.5237C444.566 30.9282 444.796 30.5903 445.148 30.1122C446.202 39.4887 447.911 48.8797 449.791 58.125L453.002 74.608C453.668 78.5017 454.36 82.552 454.214 86.5164C454.107 89.4255 453.457 92.0612 451.594 94.3709C451.374 94.6443 451.123 94.8678 450.835 95.0669C450.785 94.8981 450.819 94.955 450.728 94.8303C450.543 94.5736 450.455 94.4053 450.394 94.0914C450.363 93.9329 450.536 93.7613 450.625 93.6275L450.842 93.8447C451.43 92.9054 451.269 92.2654 451.548 91.2724L452.252 91.0012C452.378 90.24 452.787 89.7377 452.987 89C452.524 87.9197 452.875 86.8787 452.315 85.7519C452.63 80.0874 451.458 74.4141 450.587 68.8374C448.641 56.3803 445.838 44.0621 444.454 31.5237Z"/>
	<path d="M307.041 190.721L307.137 176.625C307.144 174.032 306.749 171.021 307.375 168.49C307.541 169.496 307.675 169.761 308.125 170.623C308.321 170.998 308.158 172.523 308.146 173C308.365 173.412 308.417 173.701 308.875 173.873C309.059 174.75 309.123 175.639 309.377 176.5L309.819 176.644C309.832 176.077 310.134 175.57 310.369 175.064L311.96 179.797L313.98 184.493C314.866 186.656 315.73 188.896 317.179 190.755L307.041 190.721Z"/>
	<path d="M333.653 135.223L344.74 135.356C344.99 140.497 344.671 145.735 344.699 150.894C344.736 157.852 345.257 165.22 344.463 172.125L344.306 172.234C343.623 169.318 343.603 166.229 343.126 163.27C341.575 153.639 338.829 143.583 333.653 135.223Z"/>
	<path d="M307.231 134.524C309.899 134.428 312.183 135.248 314.125 137.091C318.061 140.827 320.397 147.277 322.694 152.094L331.956 169.632C334.41 173.904 337.403 179.123 341.029 182.492C341.964 183.36 343.15 183.939 344.269 184.532C344.449 182.961 344.309 181.476 344.6 179.875C345.012 180.936 344.726 182.137 344.723 183.25L344.97 190.891C343.071 191.288 342.029 191.472 340.181 190.804C337.225 189.712 334.896 187.345 332.878 184.996C328.23 179.585 324.757 173.063 321.492 166.75L313.98 152.169C312.547 149.371 310.167 142.957 307 141.883C306.892 141.995 306.574 142.25 306.522 142.375C306.41 142.647 306.58 143.9 306.578 144.261L306.38 149.975L306.164 149.829L305.794 143.375C305.78 141.695 306.031 139.939 305.983 138.25C305.957 137.339 305.578 136.07 305.896 135.217C305.961 135.04 307.002 134.63 307.231 134.524Z"/>
	<path d="M257.114 135.125C259.008 135.431 261.379 135.188 263.321 135.235C263.564 135.241 264.567 135.176 264.739 135.271C264.822 135.317 265.556 137.234 265.655 137.446L274.378 156.401C275.644 159.109 276.77 162.183 278.372 164.7C278.846 165.446 279.272 165.978 280.067 166.413C280.539 166.445 280.994 166.564 281.426 166.351C283.501 165.328 284.918 161.816 285.625 159.742C286.463 157.284 287.106 154.634 287.68 152.101C288.686 147.662 289.925 142.129 287.823 137.859C286.925 136.036 285.959 135.939 284.141 135.324C285.421 135.021 287.22 135.241 288.553 135.235C292.507 135.216 296.544 135.366 300.476 134.919C299.625 135.654 298.715 136.078 297.917 136.927C295.236 139.777 293.485 143.677 291.955 147.228L287.867 156.816C285.234 163.064 282.487 169.507 282.03 176.369C281.729 180.879 283.057 187.262 286.104 190.751L272.682 190.987L281.655 168.633C280.988 169.121 280.3 169.666 279.545 170.007C278.03 170.692 276.135 170.951 274.562 170.33C273.048 169.733 271.903 168.207 271.072 166.875C269.26 163.971 268.067 160.364 266.645 157.242L256.8 135.641L257.114 135.125Z"/>
	<path d="M403.274 40.6481C403.839 41.8911 403.452 42.6852 403.68 43.875C403.875 44.8919 404.017 45.8156 404.001 46.935C404.682 47.7498 404.313 48.6458 404.531 49.5771L404.523 49.7103C404.786 52.5266 404.508 55.6022 404.531 58.4472C404.585 65.1641 404.841 72.0259 406.476 78.5755C407.076 80.975 407.997 83.2672 408.893 85.5669C410.466 89.6031 413.932 93.9859 417.557 96.4036C418.99 97.3587 420.609 98.023 422.178 98.715C421.684 98.9218 420.768 98.7848 420.229 98.7801L414.704 98.7377L392.318 98.8218L403.274 40.6481ZM404.523 49.7103L404.531 49.5771C404.313 48.6458 404.682 47.7498 404.001 46.935C402.784 48.8642 403.566 56.2767 403.624 58.9059L403.585 65.5582C404.975 63.7594 403.198 52.1656 404.172 49.1334L404.523 49.7103Z"/>
	<path fill="#010000" fill-opacity="0.96078432" d="M404.523 49.7103L404.172 49.1334C403.198 52.1656 404.975 63.7594 403.585 65.5582L403.624 58.9059C403.566 56.2767 402.784 48.8642 404.001 46.935C404.682 47.7498 404.313 48.6458 404.531 49.5771L404.523 49.7103Z"/>
	<path d="M231.383 134.851C236.686 134.513 242.446 134.764 247.639 135.906C249.915 136.407 251.905 136.92 253.83 138.294C253.664 139.319 253.116 140.271 252.826 141.268C252.343 142.923 252.039 144.531 251.448 146.178C246.708 143.647 240.729 142.305 235.38 142.022C231.633 141.824 226.491 141.851 223.553 144.588C222.605 145.471 222.036 146.81 221.995 148.102C221.958 149.307 222.382 150.402 223.099 151.362C224.244 152.898 226.047 153.761 227.769 154.476C233.951 157.045 245.262 157.481 249.774 162.345C250.914 163.574 251.328 164.991 251.249 166.636C251.173 168.244 250.191 169.961 249.017 171.01C242.846 176.525 230.428 168.17 223.333 167.775C221.005 167.646 218.377 168.057 216.614 169.702C215.844 170.42 215.502 171.38 215.468 172.414C215.406 174.304 216.364 176.538 217.67 177.879C222.32 182.656 231.897 183.439 238.188 183.515C244.126 183.581 248.362 183.434 253.349 179.954C252.404 182.285 251.084 184.966 250.544 187.407C250.354 188.263 249.988 189.242 249.195 189.711C244.882 192.26 234.287 191.088 229.502 189.974C224.626 188.84 219.722 185.914 217.05 181.571C215.139 178.466 213.86 173.813 214.75 170.199C215.468 167.288 216.988 165.119 219.59 163.597C227.439 159.004 236.614 163.696 244.41 165.751C245.197 165.529 246.721 165.308 247.246 164.696C247.387 164.532 247.302 163.606 247.264 163.375C247.185 162.896 247.006 162.425 246.638 162.111C244.59 160.366 241.902 159.709 239.383 158.972C234.46 157.53 229.325 156.666 224.45 155.095C222.935 154.607 221.185 153.865 219.915 152.906C217.715 151.246 216.665 149.376 216.3 146.677C215.993 144.413 216.59 142.251 218.001 140.466C221.162 136.465 226.614 135.346 231.383 134.851Z"/>
	<path d="M196.417 156.722C197.477 152.034 199.115 147.453 200.452 142.835L201.999 137.431C202.207 136.753 202.381 135.821 202.795 135.253C205.238 135.234 208.462 134.824 210.829 135.293L200.969 168.221L197.576 179.542C196.889 181.777 196.305 184.145 195.293 186.261C194.368 188.194 193.268 189.775 191.359 190.82C190.154 191.48 188.6 191.821 187.244 191.381C184.859 190.608 183.283 188.412 182.252 186.255C181.164 183.976 180.606 181.513 179.882 179.101L176.296 166.994C175.798 165.284 175.014 163.649 174.51 161.914C173.589 165.845 172.17 169.673 171.017 173.54L168.921 180.499C168.277 182.773 167.687 185.202 166.539 187.293C165.807 188.625 164.527 189.93 163.235 190.731C162.052 191.465 160.834 191.721 159.474 191.377C157.227 190.809 155.396 188.82 154.272 186.875C152.17 183.238 151.163 178.182 149.998 174.143L142.737 149.561L140.2 140.988C139.644 139.09 139.135 136.983 138.302 135.197L150.043 135.304C149.045 138.369 149.406 141.941 149.409 145.135C149.414 149.287 149.237 153.515 149.494 157.657C149.605 159.44 150.04 161.2 150.266 162.972L151.35 172.037C151.963 175.96 152.511 180.18 154.316 183.772C154.777 184.69 155.227 185.434 156.125 185.98C157.003 186.054 157.801 186.152 158.657 185.875C160.514 182.591 161.404 178.34 162.514 174.75L169.918 150.221L172.617 141.228C173.199 139.273 173.704 137.118 174.565 135.271L182.561 135.129C182.726 135.757 182.076 137.297 181.886 137.985C180.707 142.271 178.893 146.673 178.033 151.01C176.979 156.324 179.679 183.33 183.977 185.828C184.706 186.251 185.354 186.278 186.15 186.049C186.679 185.897 187.088 185.398 187.339 184.914C188.264 183.133 188.706 180.945 189.331 179.038L194.506 162.5C195.04 160.8 195.473 158.608 196.289 157.035L196.417 156.722ZM196.417 156.722L196.289 157.035C196.646 157.553 196.626 157.773 196.656 158.382L196.375 158L196.189 158.875C196.106 159.364 196.016 159.951 196.312 160.376C196.75 159.105 197.845 156.582 197.5 155.375L197.163 155.537C197.193 155.993 197.159 156.365 197.059 156.81L196.417 156.722Z"/>
	<path d="M196.417 156.722L197.059 156.81C197.159 156.365 197.193 155.993 197.163 155.537L197.5 155.375C197.845 156.582 196.75 159.105 196.312 160.376C196.016 159.951 196.106 159.364 196.189 158.875L196.375 158L196.656 158.382C196.626 157.773 196.646 157.553 196.289 157.035L196.417 156.722Z"/>
	<path d="M134.474 3.22433L147.653 3.38195L147.642 28.875L147.504 70.0718L147.523 87.4506C147.542 90.898 147.816 94.3797 147.384 97.8028L147.54 98.1517L147.226 98.625C145.671 98.8197 144.043 98.6896 142.475 98.6898L134.574 98.7434L134.474 3.22433Z"/>
	<path d="M407.091 20.1771C407.905 15.9855 408.92 11.6558 408.117 7.40347C405.664 4.50027 404.365 3.99641 400.628 3.67956L399.92 3.625C401.463 2.61207 405.565 3.24953 407.455 3.25371L416.423 3.24998C417.992 3.24753 419.803 3.0852 421.329 3.38545C423.135 3.74072 424.701 4.65326 425.72 6.21299C427.502 8.94105 427.71 12.3371 428.166 15.4782L429.62 26.6519L433.024 50.6281C434.191 58.3908 437.325 89.041 446.655 91.2011C447.506 91.3981 448.871 91.1663 449.595 90.6801C451.349 89.5013 451.754 87.6527 452.315 85.7519C452.875 86.8787 452.524 87.9197 452.987 89C452.787 89.7377 452.378 90.24 452.252 91.0012L451.548 91.2724C451.269 92.2654 451.43 92.9054 450.842 93.8447L450.625 93.6275C450.536 93.7613 450.363 93.9329 450.394 94.0914C450.455 94.4053 450.543 94.5736 450.728 94.8303C450.819 94.955 450.785 94.8981 450.835 95.0669C450.768 95.1958 450.695 95.2456 450.582 95.3381C448.251 97.2505 444.936 97.5151 442.036 97.2435C438.696 96.9307 435.792 95.7224 433.244 93.5422C422.957 84.738 421.242 64.2093 419.503 51.625L415.995 25.3953C415.373 20.643 415.159 15.3397 413.333 10.8706C412.667 9.23894 411.368 7.84829 410.257 6.50185C409.53 7.40944 409.516 10.3021 409.35 11.5032C409.123 13.1487 408.66 14.7327 408.419 16.3611C408.167 18.0591 408.121 19.7914 407.713 21.4626C407.396 21.1101 407.26 20.6146 407.091 20.1771Z"/>
	<path d="M444.454 31.5237L444.168 28.8656C443.386 20.9712 444.031 13.0025 449.273 6.70022C451.235 4.34188 454.708 2.77279 457.738 2.50642C461.305 2.19281 465.232 2.02354 468.146 4.51411C470.777 6.76245 472.045 9.9997 472.927 13.2544C474.227 18.0523 474.707 23.1101 475.427 28.0218L479.209 55.3094L483.353 84.4549L485.18 98.6174L484.154 98.6946L472.09 98.8016C471.829 98.8081 471.49 99.0091 471.309 98.8222C471.24 98.7509 471.132 97.5962 471.108 97.4286L466.21 60.9097L462.632 35.5323C461.674 28.1961 461.269 20.3263 459.332 13.2023C458.961 11.837 458.014 10.237 456.96 9.28496C455.718 8.16333 454.617 7.85498 452.95 7.97187C451.184 8.09574 449.5 9.13053 448.375 10.4718C444.4 15.211 444.649 24.3918 445.148 30.1122C444.796 30.5903 444.566 30.9282 444.454 31.5237Z"/>
	<path d="M184.675 3.25964C191.711 1.79169 200.725 1.82614 207.774 3.24659C208.884 3.13169 210.437 3.51398 211.539 3.7205C216.037 4.56372 220.078 5.89689 223.863 8.52328L219.896 22.8488C214.821 19.2249 207.853 17.5556 201.792 16.5235C192.648 14.9664 182.23 14.8143 173.315 17.6099C171.15 18.2885 168.994 19.0161 167.023 20.1674C166.088 20.7136 165.246 21.4846 164.358 22.1057C164.108 22.2809 163.884 22.4538 163.662 22.6648C161.383 24.8283 160.312 27.293 160.25 30.411C160.032 41.4168 180.325 40.898 187.535 41.3077C191.075 41.5089 194.639 41.8365 198.128 42.4898C205.728 43.9126 213.646 46.9791 219.089 52.6585C223.378 57.1329 225.355 63.9375 225.217 70.0332C225.053 77.2906 222.631 83.7968 217.322 88.8563C211.204 94.6871 202.388 98.4242 194.048 99.381C191.381 99.6871 188.581 99.5893 185.902 99.5278C176.402 99.3097 163.997 95.7048 157.318 88.7198L162.643 75.8396L171.21 80.6084C177.158 83.6917 183.767 86.173 190.477 86.8196C195.219 87.2767 199.936 86.8588 204.652 86.3564C210.325 85.752 218.089 83.4673 221.799 78.8189C223.219 77.0399 224.348 73.867 224.066 71.5679C222.617 59.7594 198.207 59.2877 188.987 57.4081C181.394 55.8601 173.68 53.8703 167.454 49.0415C162.817 45.445 160.345 40.0346 159.631 34.3159C158.761 27.357 159.871 19.8928 164.288 14.2754C169.208 8.0195 176.832 4.2173 184.675 3.25964ZM184.675 3.25964C185.369 3.27547 186.644 3.0936 187.25 3.24137C187.451 3.29046 187.672 3.55332 187.875 3.6225C188.676 3.89516 191.172 3.55229 192.11 3.53781L201.125 3.53704C202.073 3.51818 203.285 3.67988 204.19 3.40453C205.314 3.06229 206.615 3.44959 207.774 3.24659C200.725 1.82614 191.711 1.79169 184.675 3.25964Z"/>
	<path d="M184.675 3.25964C191.711 1.79169 200.725 1.82614 207.774 3.24659C206.615 3.44959 205.314 3.06229 204.19 3.40453C203.285 3.67988 202.073 3.51818 201.125 3.53704L192.11 3.53781C191.172 3.55229 188.676 3.89516 187.875 3.6225C187.672 3.55332 187.451 3.29046 187.25 3.24137C186.644 3.0936 185.369 3.27547 184.675 3.25964Z"/>
	<path d="M54.1433 31.902C54.8175 29.3746 62.4891 3.50988 62.8033 3.27266L72.8557 3.20826C74.1076 3.19824 75.8279 2.9582 77.029 3.22239L70.6507 23.8866C69.9557 26.1474 68.8278 28.6946 68.4598 31C68.2853 32.0933 68.4535 33.3414 68.4502 34.457L68.9188 44.6438L69.2611 51.125C69.9397 59.2021 71.1056 67.4535 72.8796 75.3589C73.75 79.2373 74.7222 83.4675 76.6973 86.9505C77.8232 88.9361 79.1723 90.2344 81.2395 91.1833C83.4031 90.2447 84.3502 89.9173 85.2492 87.6243L111.006 3.23926L125.421 3.28317C123.254 9.01399 121.792 15.1868 120.001 21.0623L109.567 54.878L106.23 65.5671C105.783 67.066 105.529 69.0446 104.848 70.4204C104.641 71.0593 103.635 75.0337 103.395 75.203C102.029 79.8449 100.898 84.6547 99.1379 89.1608C98.203 91.5545 97.0845 94.0428 95.2549 95.8944C93.1813 97.9931 90.7806 99.6977 87.7092 99.6772C84.7885 99.6577 82.0905 98.9033 79.9941 96.7792C78.2333 94.9951 76.7497 92.6266 75.7628 90.3355C74.0191 86.2872 72.8466 82.0087 71.6014 77.789L66.6601 61.0809L64.545 54.3202C64.1115 52.9945 63.4815 51.7613 63.4953 50.338L63.4971 50.25L63 49.9185C62.5225 50.322 62.4608 50.8203 62.2607 51.4054L60.7098 56.7421C60.5788 57.1929 60.4157 58.1299 60.1159 58.4726C59.2499 62.8032 57.6158 67.0894 56.3391 71.3149L52.3926 84.1009C51.3077 87.452 50.2372 90.9789 48.2698 93.9376C46.7412 96.2365 44.4545 98.7952 41.6154 99.3414C39.7142 99.7072 37.6209 99.7775 35.741 99.2152C32.7674 98.3256 30.0995 95.4368 28.6212 92.7939C26.0442 88.1868 24.7678 82.8049 23.2955 77.7668L19.2831 64.3708L11.5623 39L4.86768 16.9567C3.40634 12.5466 2.52916 7.29393 0.338079 3.20596L4.09818 3.27893C9.54138 3.2457 15.4053 2.80364 20.7972 3.40756C19.5847 15.9872 19.8966 28.2308 20.5036 40.8225L20.642 47.7492L21.6031 58.684C21.7654 60.2016 22.1964 61.7069 22.2295 63.2329C22.9734 65.5372 23.1179 68.5769 23.5132 71C24.0196 74.1036 24.7558 77.0605 25.5788 80.0933C26.5433 83.6476 28.0984 88.7912 31.5774 90.6589C32.4059 91.1036 33.0649 91.2133 33.9821 90.9225C34.9322 90.6213 35.8851 90.0134 36.3521 89.1211C37.6139 86.7104 38.2304 83.9793 39.0147 81.3807L42.4601 70.0293L51.088 41.9835L54.1433 31.902ZM4.09818 3.27893L4.18122 3.30832C5.65786 3.81151 7.38961 3.61849 8.9336 3.60502C9.35296 3.60136 10.2608 3.50529 10.6275 3.625C12.9077 4.36945 16.9272 3.92709 19.4443 3.91634C19.7001 7.86685 18.598 11.6693 18.5113 15.5403L18.5149 33.1032C18.582 35.1595 19.2153 37.2564 19.3664 39.3557C19.6331 43.0623 19.3651 46.8066 19.5208 50.5242C19.5317 50.7843 19.4816 51.4291 19.572 51.6242C19.6286 51.7462 19.874 51.8727 19.9147 52C20.0804 52.5186 20.0215 53.411 20.0728 53.9751L20.4458 59.1667C20.4798 60.0043 20.4229 61.1627 20.8505 61.888C21.348 62.732 21.5466 63.6854 21.5589 64.6507C21.5603 64.7602 21.5708 65.5717 21.6275 65.625C21.7074 65.7 21.8305 65.7075 21.9321 65.7488C21.9632 64.937 21.9032 63.986 22.2295 63.2329C22.1964 61.7069 21.7654 60.2016 21.6031 58.684L20.642 47.7492L20.5036 40.8225C19.8966 28.2308 19.5847 15.9872 20.7972 3.40756C15.4053 2.80364 9.54138 3.2457 4.09818 3.27893ZM60.1159 58.4726C60.4157 58.1299 60.5788 57.1929 60.7098 56.7421L62.2607 51.4054L61.9141 50.375C61.6286 50.3648 61.4744 50.3633 61.206 50.483C60.9132 51.114 60.5089 51.8302 60.3355 52.5C60.2078 52.993 60.3986 53.2647 60.1064 53.7578C59.541 54.7117 58.9711 57.7848 59.2395 58.8033L59.2747 58.9252C59.585 58.521 59.6061 58.5528 60.1159 58.4726ZM54.1433 31.902L51.088 41.9835L51.6143 42.1132L51.7097 42.8555L51.3 43.2939L51.5625 43.8812L52.6874 40.2685C53.1607 39.1768 53.2567 37.8701 53.6474 36.759C53.9276 35.9617 54.8143 34.335 54.6225 33.5C54.5124 33.0209 54.244 32.4976 54.1433 31.902ZM103.395 75.203C103.635 75.0337 104.641 71.0593 104.848 70.4204C103.73 70.7975 103.4 70.9607 102.627 71.875C102.48 73.21 102.208 74.663 102.3 76L102.502 76.0012C102.81 75.4473 102.92 75.2798 102.892 74.625L103.359 74.6215L103.395 75.203Z"/>
	<defs>
		<linearGradient id="gradient_0" gradientUnits="userSpaceOnUse" x1="103.24419" y1="74.671402" x2="102.00581" y2="73.078598">
			<stop offset="0" stop-color="black" stop-opacity="0.92941177"/>
			<stop offset="1" stop-color="black" stop-opacity="0.97254902"/>
		</linearGradient>
	</defs>
	<path fill="url(#gradient_0)" d="M103.395 75.203L103.359 74.6215L102.892 74.625C102.92 75.2798 102.81 75.4473 102.502 76.0012L102.3 76C102.208 74.663 102.48 73.21 102.627 71.875C103.4 70.9607 103.73 70.7975 104.848 70.4204C104.641 71.0593 103.635 75.0337 103.395 75.203Z"/>
	<defs>
		<linearGradient id="gradient_1" gradientUnits="userSpaceOnUse" x1="52.46172" y1="40.839127" x2="51.72644" y2="40.644505">
			<stop offset="0" stop-color="#010001" stop-opacity="0.95686275"/>
			<stop offset="1" stop-color="#000001" stop-opacity="0.98823529"/>
		</linearGradient>
	</defs>
	<path fill="url(#gradient_1)" d="M54.1433 31.902C54.244 32.4976 54.5124 33.0209 54.6225 33.5C54.8143 34.335 53.9276 35.9617 53.6474 36.759C53.2567 37.8701 53.1607 39.1768 52.6874 40.2685L51.5625 43.8812L51.3 43.2939L51.7097 42.8555L51.6143 42.1132L51.088 41.9835L54.1433 31.902Z"/>
	<path fill="#010000" fill-opacity="0.95294118" d="M60.1159 58.4726C59.6061 58.5528 59.585 58.521 59.2747 58.9252L59.2395 58.8033C58.9711 57.7848 59.541 54.7117 60.1064 53.7578C60.3986 53.2647 60.2078 52.993 60.3355 52.5C60.5089 51.8302 60.9132 51.114 61.206 50.483C61.4744 50.3633 61.6286 50.3648 61.9141 50.375L62.2607 51.4054L60.7098 56.7421C60.5788 57.1929 60.4157 58.1299 60.1159 58.4726Z"/>
	<path d="M4.09818 3.27893C9.54138 3.2457 15.4053 2.80364 20.7972 3.40756C19.5847 15.9872 19.8966 28.2308 20.5036 40.8225L20.642 47.7492L21.6031 58.684C21.7654 60.2016 22.1964 61.7069 22.2295 63.2329C21.9032 63.986 21.9632 64.937 21.9321 65.7488C21.8305 65.7075 21.7074 65.7 21.6275 65.625C21.5708 65.5717 21.5603 64.7602 21.5589 64.6507C21.5466 63.6854 21.348 62.732 20.8505 61.888C20.4229 61.1627 20.4798 60.0043 20.4458 59.1667L20.0728 53.9751C20.0215 53.411 20.0804 52.5186 19.9147 52C19.874 51.8727 19.6286 51.7462 19.572 51.6242C19.4816 51.4291 19.5317 50.7843 19.5208 50.5242C19.3651 46.8066 19.6331 43.0623 19.3664 39.3557C19.2153 37.2564 18.582 35.1595 18.5149 33.1032L18.5113 15.5403C18.598 11.6693 19.7001 7.86685 19.4443 3.91634C16.9272 3.92709 12.9077 4.36945 10.6275 3.625C10.2608 3.50529 9.35296 3.60136 8.9336 3.60502C7.38961 3.61849 5.65786 3.81151 4.18122 3.30832L4.09818 3.27893Z"/>
	<path d="M235.69 3.24709L251.52 3.22869C255.999 3.20898 260.613 3.05502 265.075 3.5183C273.848 4.42924 282.979 7.72896 289.286 14.0575C298.986 23.79 302.588 37.3012 302.53 50.793C302.474 63.9748 299.682 77.5436 290.002 87.1109C283.094 93.9385 274.408 97.4315 264.812 98.4526C259.311 99.0381 253.577 98.7769 248.051 98.7404L235.542 98.7714L234.997 98.7224C235.759 97.4237 235.116 82.215 235.081 79.6609L234.97 59.3898L235.041 18.5432C235.004 13.4605 235.345 8.33779 234.959 3.27835L235.69 3.24709ZM286.347 72.7678L286.534 71.9784C289.083 61.9684 289.552 51.6187 288.512 41.3676C287.731 33.6629 285.981 25.7115 281.975 18.9864C278.05 12.3966 271.551 7.31095 264.07 5.44234C258.727 4.10768 253.146 4.21444 247.675 4.24833L247.706 97.801C251.606 97.683 255.757 97.8027 259.631 97.3539C266.457 96.5631 272.784 93.8582 277.538 88.8028C281.968 84.0906 284.326 78.838 286.347 72.7678ZM234.959 3.27835C235.345 8.33779 235.004 13.4605 235.041 18.5432L234.97 59.3898L235.081 79.6609C235.116 82.215 235.759 97.4237 234.997 98.7224L235.542 98.7714C235.547 98.4215 235.576 98.046 235.506 97.7022C235.388 97.1298 235.608 96.7089 235.584 96.1318L235.501 87.5804L235.632 55.7162L235.546 18.0183L235.506 8.8057C235.502 6.98341 235.392 5.04846 235.69 3.24709L234.959 3.27835ZM286.534 71.9784L286.347 72.7678C286.686 73.5619 286.704 73.7524 286.61 74.6129L286.816 74.7248C287.203 73.366 288.337 71.059 287.999 69.7512L287.806 69.7512C287.732 70.943 287.22 71.4811 287.164 72.6139L286.534 71.9784Z"/>
	<path d="M286.534 71.9784L287.164 72.6139C287.22 71.4811 287.732 70.943 287.806 69.7512L287.999 69.7512C288.337 71.059 287.203 73.366 286.816 74.7248L286.61 74.6129C286.704 73.7524 286.686 73.5619 286.347 72.7678L286.534 71.9784Z"/>
	<path fill="#010000" fill-opacity="0.96078432" d="M234.959 3.27835L235.69 3.24709C235.392 5.04846 235.502 6.98341 235.506 8.8057L235.546 18.0183L235.632 55.7162L235.501 87.5804L235.584 96.1318C235.608 96.7089 235.388 97.1298 235.506 97.7022C235.576 98.046 235.547 98.4215 235.542 98.7714L234.997 98.7224C235.759 97.4237 235.116 82.215 235.081 79.6609L234.97 59.3898L235.041 18.5432C235.004 13.4605 235.345 8.33779 234.959 3.27835Z"/>
	<path d="M344.54 2.34173C353.512 1.5923 362.26 3.53359 369.375 9.27976C379.746 17.6554 384.164 30.0341 385.386 42.9744C385.6 45.2319 385.451 47.5906 385.476 49.8609C385.616 62.543 384.02 76.2368 375.574 86.3922C369.224 94.0279 361.565 98.681 351.562 99.6166C343.036 100.641 333.995 98.0935 327.255 92.8451C317.545 85.2839 312.564 72.4521 311.121 60.552C310.703 57.1053 310.706 53.6313 310.735 50.165C310.841 37.7197 313.378 25.3123 321.229 15.3053C327.128 7.78705 335.067 3.47606 344.54 2.34173ZM345.392 3.56036C339.936 4.98982 335.97 8.33477 333.118 13.1875C324.895 27.1836 324.218 45.6627 325.469 61.4627C325.818 65.8763 326.15 70.2541 327.315 74.5559C329.528 82.7297 333.509 92.4175 341.249 96.7648C344.391 98.5291 347.78 98.8635 351.315 98.2806C356.15 97.3161 360.103 93.6079 362.761 89.625C368.834 80.5258 370.56 68.3149 371.121 57.625C371.596 48.5784 371.384 39.393 369.593 30.4798C367.752 21.3169 364.261 11.1452 356.145 5.76351C352.801 3.54607 349.303 3.19998 345.392 3.56036Z"/>
</svg>
