<?xml version="1.0" standalone="no"?>
<!DOCTYPE svg PUBLIC "-//W3C//DTD SVG 20010904//EN"
 "http://www.w3.org/TR/2001/REC-SVG-20010904/DTD/svg10.dtd">
<svg version="1.0" xmlns="http://www.w3.org/2000/svg"
 width="null" height="null"   viewBox="0 0 1024.000000 1024.000000"
 style="background: none;"
 preserveAspectRatio="xMidYMid meet">

<g transform="translate(0.000000,1024.000000) scale(0.100000,-0.100000)"
fill="#000" stroke="none">
<path d="M5073 7470 c-206 -43 -284 -288 -140 -438 122 -128 333 -98 421 58
27 47 31 65 30 125 0 55 -6 81 -27 122 -52 102 -169 157 -284 133z m92 -154
c40 -17 75 -68 75 -111 0 -60 -56 -105 -129 -105 -30 0 -46 7 -69 30 -48 48
-50 109 -3 156 44 45 73 52 126 30z"/>
<path d="M2774 7186 c-51 -22 -60 -77 -20 -123 l24 -28 849 -3 c466 -1 863 0
881 3 75 14 98 91 41 139 l-31 26 -856 0 c-697 -1 -863 -3 -888 -14z"/>
<path d="M5720 7193 c-63 -23 -78 -87 -31 -134 l30 -29 876 2 877 3 24 28 c32
38 31 72 -5 108 l-29 29 -864 -1 c-475 0 -870 -3 -878 -6z"/>
<path d="M4090 6670 c-74 -10 -137 -28 -184 -52 -61 -31 -149 -121 -182 -185
-27 -53 -29 -67 -29 -163 0 -93 3 -112 27 -162 61 -131 184 -214 385 -261 194
-46 263 -94 263 -184 0 -92 -60 -143 -175 -151 -113 -7 -201 25 -310 114 -31
25 -44 30 -58 23 -30 -17 -167 -181 -167 -200 0 -26 111 -112 205 -159 176
-87 391 -94 550 -20 158 75 245 214 246 395 1 125 -38 215 -128 295 -63 55
-137 88 -288 127 -196 50 -248 83 -261 164 -5 32 -2 42 31 77 20 23 52 46 72
53 77 25 204 -7 285 -71 20 -17 44 -30 52 -30 18 0 170 174 174 200 6 36 -164
146 -270 174 -75 19 -170 26 -238 16z"/>
<path d="M1227 6663 c-15 -14 -4 -59 88 -358 128 -413 283 -925 306 -1004 26
-91 28 -92 122 -89 l80 3 13 40 c6 22 44 141 84 265 39 124 78 248 87 275 52
173 93 264 93 208 0 -10 38 -133 84 -273 47 -140 101 -309 121 -375 21 -66 42
-126 47 -132 7 -8 37 -13 83 -13 46 0 76 5 83 13 9 11 167 510 192 607 7 25
68 220 136 433 69 213 122 392 119 397 -10 15 -290 13 -303 -2 -10 -13 -76
-225 -111 -358 -34 -129 -103 -364 -111 -380 -13 -22 -35 36 -155 401 -57 177
-110 328 -116 335 -15 19 -152 19 -167 1 -6 -7 -63 -170 -127 -363 -119 -358
-129 -383 -141 -372 -6 7 -50 152 -160 533 -31 104 -60 195 -66 202 -7 9 -48
13 -143 13 -72 0 -135 -3 -138 -7z"/>
<path d="M3166 6654 c-14 -13 -16 -95 -15 -712 0 -626 2 -698 16 -714 14 -15
34 -18 139 -18 112 0 124 2 134 19 6 13 10 255 10 715 0 618 -2 696 -16 710
-23 23 -245 23 -268 0z"/>
<path d="M4873 6662 c-18 -11 -20 -1416 -3 -1437 10 -12 48 -15 199 -15 217 0
290 9 426 51 150 46 207 80 315 189 81 81 102 109 140 188 24 50 47 92 50 92
4 0 16 -24 28 -53 34 -82 119 -202 183 -260 313 -283 797 -233 1049 108 50 67
83 135 112 225 19 63 23 96 23 210 0 116 -3 144 -23 200 -59 163 -126 261
-240 352 -87 69 -140 97 -242 129 -96 30 -288 33 -390 5 -201 -54 -380 -211
-470 -410 l-30 -68 -46 92 c-94 187 -258 319 -479 383 -61 18 -104 21 -330 24
-143 2 -265 0 -272 -5z m490 -287 c352 -74 489 -461 254 -721 -85 -93 -235
-154 -384 -154 l-73 0 0 445 0 445 68 0 c37 0 97 -7 135 -15z m1408 -5 c152
-29 273 -140 324 -299 24 -72 16 -202 -16 -286 -28 -73 -142 -194 -210 -223
-268 -115 -556 45 -600 333 -45 284 215 529 502 475z"/>
<path d="M7587 6653 c-14 -16 -15 -92 -13 -721 2 -598 5 -705 17 -713 22 -14
253 -11 267 3 9 9 12 109 12 387 0 357 1 374 18 358 9 -10 96 -122 192 -250
159 -211 178 -232 205 -232 27 0 46 22 220 254 l190 255 5 -376 c4 -297 8
-378 19 -391 11 -14 34 -17 136 -17 91 0 125 3 134 14 8 9 10 208 9 727 l-3
714 -70 3 c-116 5 -83 35 -331 -308 -235 -325 -270 -373 -289 -397 l-20 -25
-75 104 c-177 245 -426 575 -454 600 -26 24 -39 28 -92 28 -45 0 -65 -4 -77
-17z"/>
<path d="M1245 4905 c-33 -33 -32 -70 4 -106 l29 -29 377 0 376 0 24 25 c31
30 32 73 4 109 l-20 26 -385 0 -385 0 -24 -25z"/>
<path d="M2253 4914 c-3 -9 26 -116 65 -238 86 -267 223 -720 299 -986 31
-107 60 -201 66 -208 15 -19 177 -12 188 8 5 8 49 146 99 305 112 355 152 467
163 456 7 -7 174 -522 227 -699 11 -40 28 -76 35 -79 27 -10 140 -9 158 2 11
6 28 44 43 95 128 424 301 980 391 1252 14 43 23 85 19 93 -4 12 -31 15 -151
15 l-146 0 -14 -32 c-18 -44 -155 -505 -203 -683 l-19 -70 -15 30 c-9 17 -64
188 -123 380 -59 193 -112 356 -117 363 -7 8 -39 12 -94 12 -83 0 -85 -1 -95
-27 -13 -32 -107 -329 -183 -578 -29 -93 -57 -169 -62 -168 -5 1 -14 21 -20
45 -6 24 -37 131 -69 238 -31 107 -75 258 -97 335 -21 77 -45 143 -51 147 -7
4 -74 8 -150 8 -117 0 -139 -2 -144 -16z"/>
<path d="M4166 4914 c-14 -14 -16 -93 -16 -718 0 -582 2 -706 14 -715 9 -8
133 -10 437 -9 l424 3 0 135 0 135 -287 3 -288 2 0 150 0 150 199 0 c157 0
201 3 210 14 8 9 11 54 9 132 l-3 119 -208 3 -208 2 3 158 3 157 286 3 287 2
82 -127 c45 -71 124 -194 176 -275 l94 -147 0 -298 c0 -219 3 -302 12 -311 17
-17 252 -17 266 1 7 8 12 117 14 313 l3 299 81 125 c136 212 414 676 414 694
0 14 -19 16 -165 16 l-165 0 -34 -52 c-18 -29 -83 -141 -145 -248 -61 -107
-115 -202 -120 -210 -13 -20 -32 4 -112 145 -87 152 -209 348 -223 357 -6 4
-239 8 -518 8 -447 0 -508 -2 -522 -16z"/>
<path d="M6352 4918 c-17 -17 -18 -1418 0 -1436 14 -14 245 -17 266 -4 9 6 12
97 12 402 1 217 3 404 6 417 7 26 22 30 38 9 56 -70 731 -818 746 -826 20 -11
129 -14 154 -4 14 6 16 78 16 718 0 540 -3 715 -12 724 -8 8 -53 12 -135 12
-111 0 -123 -2 -133 -19 -6 -13 -10 -168 -10 -435 0 -229 -4 -416 -8 -416 -5
0 -48 48 -98 108 -49 59 -164 195 -255 302 -92 107 -216 254 -276 325 l-109
130 -94 3 c-66 2 -99 -1 -108 -10z"/>
<path d="M7819 4917 c-44 -34 -47 -103 -6 -132 32 -22 1132 -23 1163 0 42 29
34 121 -11 139 -9 3 -267 6 -573 6 -422 -1 -561 -4 -573 -13z"/>
<path d="M1254 4577 c-35 -31 -37 -77 -4 -112 l23 -25 302 0 c326 0 335 1 355
56 11 29 -5 81 -30 94 -11 6 -142 10 -319 10 l-300 0 -27 -23z"/>
<path d="M8085 4568 c-30 -36 -28 -68 7 -105 l21 -23 422 0 422 0 21 23 c32
34 30 89 -4 116 -26 20 -37 21 -444 21 l-418 0 -27 -32z"/>
<path d="M1251 4244 c-30 -38 -28 -87 5 -113 26 -20 38 -21 375 -21 l348 0 27
23 c36 32 39 74 6 110 l-26 27 -357 0 -358 0 -20 -26z"/>
<path d="M8099 4260 c-29 -17 -43 -65 -27 -97 23 -49 48 -52 480 -52 l397 -1
26 23 c37 31 37 82 1 114 l-27 23 -417 0 c-243 0 -424 -5 -433 -10z"/>
<path d="M1249 3921 c-17 -18 -29 -40 -29 -56 0 -34 41 -75 77 -75 15 -1 179
-1 363 0 327 1 335 1 357 22 34 32 31 80 -8 112 l-31 26 -350 0 -350 0 -29
-29z"/>
<path d="M7816 3919 c-33 -39 -33 -69 2 -102 l28 -27 556 0 c515 0 557 1 577
18 34 28 37 73 8 108 l-25 29 -560 3 -560 2 -26 -31z"/>
<path d="M5063 3251 c-49 -13 -120 -58 -149 -96 -83 -109 -70 -250 31 -352
139 -138 341 -90 426 103 25 56 22 139 -6 195 -24 47 -83 107 -129 131 -43 22
-125 31 -173 19z m117 -156 c35 -18 60 -62 60 -104 0 -37 -49 -96 -86 -105
-61 -16 -144 45 -144 105 0 90 91 145 170 104z"/>
<path d="M3942 3127 c-28 -30 -29 -80 -2 -107 18 -18 33 -20 158 -20 75 0 203
-2 284 -5 146 -5 147 -5 177 21 37 31 41 69 10 108 l-20 26 -293 0 -293 0 -21
-23z"/>
<path d="M5676 3129 c-33 -26 -36 -79 -6 -109 19 -19 33 -20 323 -20 282 0
305 1 320 18 24 26 22 83 -3 110 -20 22 -25 22 -314 22 -282 0 -294 -1 -320
-21z"/>
</g>
</svg>
